<?xml version="1.0" encoding="utf-8"?>
<!-- Generator: Adobe Illustrator 21.1.0, SVG Export Plug-In . SVG Version: 6.00 Build 0)  -->
<svg version="1.1" id="design" xmlns="http://www.w3.org/2000/svg" xmlns:xlink="http://www.w3.org/1999/xlink" x="0px" y="0px"
	 viewBox="0 0 835 280" style="enable-background:new 0 0 835 280;" xml:space="preserve">
<style type="text/css">
	.st0{fill:#48A23F;}
	.st1{fill:#E8F2F9;}
	.st2{fill:#D0E5F2;}
	.st3{fill:#B1D4EA;}
	.st4{fill:#9DC9E5;}
	.st5{fill:#85BBDF;}
	.st6{fill:#66AAD7;}
	.st7{fill:#D9EAF5;}
	.st8{fill:#BDDDF4;}
	.st9{fill:#FFFFFF;}
	.st10{fill:#005EB8;}
	.st11{fill:#70BEF2;}
	.st12{fill:#FBB040;}
	.st13{fill:#B0BEC5;}
	.st14{fill:#212B53;}
	.st15{fill:#053C5E;}
	.st16{fill:#546E7A;}
	.st17{fill:#F7B58E;}
	.st18{fill:#034982;}
	.st19{fill:#FCC066;}
	.st20{fill:#F39F85;}
	.st21{fill:#8DCB8D;}
	.st22{fill:#12375A;}
	.st23{fill:#3F535C;}
	.st24{fill:url(#SVGID_1_);}
	.st25{fill:#F49B42;}
	.st26{fill:#F9B646;}
	.st27{fill:#E7365E;}
</style>
<g id="Layer_2">
	<path class="st0" d="M832.5,185.7c-2.7-2.7-7.2-2.8-9.9,0c-1.1,1.1-1.9,2.6-2,4.2h-49.1l-63.9-44c1.9-3.4,0.6-7.7-2.8-9.5
		c-3.4-1.9-7.7-0.6-9.5,2.8c-0.4,0.8-0.7,1.7-0.8,2.6H680c-0.4-3.6-3.4-6.3-7-6.3c-0.3,0-0.5,0-0.8,0l-7.4-25.4
		c3.6-1.5,5.3-5.6,3.8-9.2c-1.5-3.6-5.6-5.3-9.2-3.8c-3.4,1.4-5.2,5.2-4,8.8l-39.5,18.2c-0.3-0.5-0.6-0.9-1-1.3
		c-2.9-2.6-7.3-2.4-9.9,0.5c-2.4,2.7-2.4,6.8,0,9.5c0.4,0.4,0.9,0.8,1.4,1.1l-18.7,42.4c-3.6-1.5-7.7,0.2-9.2,3.8c0,0,0,0,0,0
		l-21.7-7.1c0.1-0.5,0.1-1,0.1-1.4c0-3.9-3.1-7-7-7.1c-3.9,0-7,3.1-7.1,7c0,1.7,0.6,3.4,1.7,4.7l-31,33.4c-2.7-2.4-6.7-2.3-9.4,0.1
		L443,140.4c2.3-3.1,1.5-7.5-1.6-9.8s-7.5-1.5-9.8,1.6c-2,2.8-1.7,6.6,0.7,9c0.2,0.2,0.4,0.4,0.6,0.5l-24.5,48h-31.1
		c-0.4-3.9-3.9-6.6-7.7-6.2c-3.9,0.4-6.6,3.9-6.2,7.7s3.9,6.6,7.7,6.2c3.3-0.4,5.8-2.9,6.2-6.2h32l24.8-48.8c2.5,1.2,5.5,0.8,7.6-1
		l61.5,69.2c-2.2,3.2-1.4,7.6,1.8,9.8c3.2,2.2,7.6,1.4,9.8-1.8c1.7-2.5,1.6-5.7-0.1-8.1l31.1-33.5c2.8,2.1,6.7,1.8,9.1-0.7
		c0.6-0.6,1.1-1.3,1.4-2.1l21.8,7.1c-0.1,0.4-0.1,0.8-0.1,1.2c0,3.9,3.2,7,7.1,7c3.9,0,7-3.2,7-7.1c0-1.8-0.7-3.6-2-4.9
		c-0.3-0.3-0.6-0.6-0.9-0.8l18.7-42.5c0.7,0.2,1.4,0.3,2.1,0.3c3.9,0,7-3.1,7-7c0,0,0,0,0,0c0-0.8-0.1-1.5-0.4-2.2l39.6-18.2
		c0.3,0.5,0.6,0.9,1,1.3c1.3,1.3,3.1,2.1,5,2.1c0.4,0,0.8,0,1.2-0.1l7.3,25.3c-3.7,1.3-5.6,5.3-4.3,8.9c1.3,3.7,5.3,5.6,8.9,4.3
		c1-0.3,1.9-0.9,2.7-1.7c1.1-1.1,1.8-2.6,2-4.2h14.4c0.4,3.9,3.9,6.6,7.7,6.2c1.6-0.2,3.1-0.9,4.2-2c0.1-0.1,0.2-0.3,0.3-0.4
		l64.2,44.2h49.5c0.4,3.9,3.9,6.7,7.7,6.2c3.9-0.4,6.7-3.9,6.2-7.7C834.4,188.3,833.6,186.8,832.5,185.7L832.5,185.7z M374.2,194.5
		c-2.1,2.1-5.6,2.1-7.8,0c-2.1-2.1-2.1-5.6,0-7.8c2.1-2.1,5.6-2.1,7.8,0c1,1,1.6,2.4,1.6,3.9C375.8,192.1,375.3,193.5,374.2,194.5
		L374.2,194.5z M441.1,140.2c-2.1,2.1-5.6,2.2-7.8,0c-2.1-2.1-2.2-5.6,0-7.8c2.1-2.1,5.6-2.2,7.8,0c1,1,1.6,2.4,1.6,3.9
		C442.7,137.8,442.1,139.1,441.1,140.2L441.1,140.2z M513.1,218.7c-2.1,2.1-5.6,2.2-7.8,0c-2.1-2.1-2.2-5.6,0-7.8
		c2.1-2.1,5.6-2.2,7.8,0c1,1,1.6,2.4,1.6,3.9C514.7,216.2,514.1,217.6,513.1,218.7L513.1,218.7z M554,175.4c-2.1,2.1-5.6,2.1-7.8,0
		c-2.1-2.1-2.1-5.6,0-7.8c2.1-2.1,5.6-2.1,7.8,0c1,1,1.6,2.4,1.6,3.9C555.6,172.9,555,174.3,554,175.4L554,175.4z M590.7,182.7
		c0,3-2.5,5.5-5.5,5.5c-3,0-5.5-2.5-5.5-5.5c0-3,2.5-5.5,5.5-5.5c1.5,0,2.8,0.6,3.9,1.6C590.1,179.8,590.7,181.2,590.7,182.7
		L590.7,182.7z M614,131.6c-2.1,2.1-5.6,2.1-7.8,0c-2.1-2.1-2.1-5.6,0-7.8c2.1-2.1,5.6-2.1,7.8,0c1,1,1.6,2.4,1.6,3.9
		C615.6,129.2,615,130.6,614,131.6L614,131.6z M662.3,109.2c-3,0-5.5-2.5-5.5-5.5c0-3,2.5-5.5,5.5-5.5c3,0,5.5,2.5,5.5,5.5
		c0,1.5-0.6,2.8-1.6,3.9C665.1,108.6,663.7,109.2,662.3,109.2L662.3,109.2z M677,146.5c-2.1,2.1-5.6,2.1-7.8,0
		c-2.1-2.1-2.1-5.6,0-7.8c2.1-2.1,5.6-2.1,7.8,0c1,1,1.6,2.4,1.6,3.9C678.5,144,678,145.4,677,146.5L677,146.5z M705.3,146.5
		c-2.1,2.1-5.6,2.1-7.8,0c-2.1-2.1-2.1-5.6,0-7.8c2.1-2.1,5.6-2.1,7.8,0c1,1,1.6,2.4,1.6,3.9C706.9,144,706.3,145.4,705.3,146.5
		L705.3,146.5z M831.5,194.5c-2.1,2.1-5.6,2.1-7.8,0c-2.1-2.1-2.1-5.6,0-7.8c2.1-2.1,5.6-2.1,7.8,0c1,1,1.6,2.4,1.6,3.9
		C833.1,192,832.5,193.4,831.5,194.5z"/>
	<rect x="360.6" y="9.6" class="st1" width="10.8" height="6.4"/>
	<rect x="360.6" y="38.2" class="st2" width="10.8" height="6.4"/>
	<rect x="360.6" y="47.7" class="st2" width="10.8" height="6.4"/>
	<rect x="360.6" y="57.6" class="st3" width="10.8" height="6.4"/>
	<rect x="360.6" y="67.1" class="st3" width="10.8" height="6.4"/>
	<rect x="360.6" y="76.6" class="st3" width="10.8" height="6.4"/>
	<rect x="360.6" y="86.1" class="st3" width="10.8" height="6.4"/>
	<rect x="360.6" y="95.7" class="st3" width="10.8" height="6.4"/>
	<rect x="360.6" y="105.2" class="st4" width="10.8" height="6.4"/>
	<rect x="360.6" y="114.7" class="st4" width="10.8" height="6.4"/>
	<rect x="360.6" y="124.2" class="st4" width="10.8" height="6.4"/>
	<rect x="360.6" y="133.9" class="st5" width="10.8" height="6.4"/>
	<rect x="360.6" y="143.4" class="st5" width="10.8" height="6.4"/>
	<rect x="360.6" y="152.9" class="st5" width="10.8" height="6.4"/>
	<rect x="360.6" y="162.4" class="st6" width="10.8" height="6.4"/>
	<rect x="360.6" y="172" class="st6" width="10.8" height="6.4"/>
	<rect x="379.8" y="28.4" class="st7" width="10.8" height="6.4"/>
	<rect x="379.8" y="38" class="st2" width="10.8" height="6.4"/>
	<rect x="379.8" y="47.5" class="st2" width="10.8" height="6.4"/>
	<rect x="379.8" y="57.4" class="st3" width="10.8" height="6.4"/>
	<rect x="379.8" y="66.8" class="st3" width="10.8" height="6.4"/>
	<rect x="379.8" y="76.4" class="st3" width="10.8" height="6.4"/>
	<rect x="379.8" y="85.9" class="st3" width="10.8" height="6.4"/>
	<rect x="379.8" y="95.5" class="st3" width="10.8" height="6.4"/>
	<rect x="379.8" y="104.9" class="st4" width="10.8" height="6.4"/>
	<rect x="379.8" y="114.5" class="st4" width="10.8" height="6.4"/>
	<rect x="379.8" y="124" class="st4" width="10.8" height="6.4"/>
	<rect x="379.8" y="133.7" class="st5" width="10.8" height="6.4"/>
	<rect x="379.8" y="143.1" class="st5" width="10.8" height="6.4"/>
	<rect x="379.8" y="152.7" class="st5" width="10.8" height="6.4"/>
	<rect x="379.8" y="162.2" class="st6" width="10.8" height="6.4"/>
	<rect x="379.8" y="171.8" class="st6" width="10.8" height="6.4"/>
	<rect x="379.8" y="181.2" class="st6" width="10.8" height="6.4"/>
	<rect x="398.6" y="19.1" class="st7" width="10.8" height="6.4"/>
	<rect x="398.6" y="28.6" class="st7" width="10.8" height="6.4"/>
	<rect x="398.6" y="38.1" class="st2" width="10.8" height="6.4"/>
	<rect x="398.6" y="47.6" class="st2" width="10.8" height="6.4"/>
	<rect x="398.6" y="57.5" class="st3" width="10.8" height="6.4"/>
	<rect x="398.6" y="67" class="st3" width="10.8" height="6.4"/>
	<rect x="398.6" y="76.6" class="st3" width="10.8" height="6.4"/>
	<rect x="398.6" y="86" class="st3" width="10.8" height="6.4"/>
	<rect x="398.6" y="95.6" class="st3" width="10.8" height="6.4"/>
	<rect x="398.6" y="105.1" class="st4" width="10.8" height="6.4"/>
	<rect x="398.6" y="114.6" class="st4" width="10.8" height="6.4"/>
	<rect x="398.6" y="124.1" class="st4" width="10.8" height="6.4"/>
	<rect x="398.6" y="133.8" class="st5" width="10.8" height="6.4"/>
	<rect x="398.6" y="143.3" class="st5" width="10.8" height="6.4"/>
	<rect x="398.6" y="152.9" class="st5" width="10.8" height="6.4"/>
	<rect x="398.6" y="162.3" class="st6" width="10.8" height="6.4"/>
	<rect x="398.6" y="171.9" class="st6" width="10.8" height="6.4"/>
	<rect x="398.6" y="181.4" class="st6" width="10.8" height="6.4"/>
	<rect x="417.8" y="67.1" class="st3" width="10.8" height="6.4"/>
	<rect x="417.8" y="76.7" class="st3" width="10.8" height="6.4"/>
	<rect x="417.8" y="86.1" class="st3" width="10.8" height="6.4"/>
	<rect x="417.8" y="95.7" class="st3" width="10.8" height="6.4"/>
	<rect x="417.8" y="105.2" class="st4" width="10.8" height="6.4"/>
	<rect x="417.8" y="114.7" class="st4" width="10.8" height="6.4"/>
	<rect x="417.8" y="124.2" class="st4" width="10.8" height="6.4"/>
	<rect x="417.8" y="133.9" class="st5" width="10.8" height="6.4"/>
	<rect x="417.8" y="143.4" class="st5" width="10.8" height="6.4"/>
	<rect x="437.2" y="19.2" class="st7" width="10.8" height="6.4"/>
	<rect x="437.2" y="28.7" class="st7" width="10.8" height="6.4"/>
	<rect x="437.2" y="38.2" class="st2" width="10.8" height="6.4"/>
	<rect x="437.2" y="47.7" class="st2" width="10.8" height="6.4"/>
	<rect x="437.2" y="57.6" class="st3" width="10.8" height="6.4"/>
	<rect x="437.2" y="67.1" class="st3" width="10.8" height="6.4"/>
	<rect x="437.2" y="76.6" class="st3" width="10.8" height="6.4"/>
	<rect x="437.2" y="86.1" class="st3" width="10.8" height="6.4"/>
	<rect x="437.2" y="95.7" class="st3" width="10.8" height="6.4"/>
	<rect x="437.2" y="105.2" class="st4" width="10.8" height="6.4"/>
	<rect x="437.2" y="114.7" class="st4" width="10.8" height="6.4"/>
	<rect x="456.3" y="9.4" class="st1" width="10.8" height="6.4"/>
	<rect x="456.3" y="19" class="st7" width="10.8" height="6.4"/>
	<rect x="456.3" y="28.4" class="st7" width="10.8" height="6.4"/>
	<rect x="456.3" y="38" class="st2" width="10.8" height="6.4"/>
	<rect x="456.3" y="47.5" class="st2" width="10.8" height="6.4"/>
	<rect x="456.3" y="57.4" class="st3" width="10.8" height="6.4"/>
	<rect x="456.3" y="66.8" class="st3" width="10.8" height="6.4"/>
	<rect x="456.3" y="76.4" class="st3" width="10.8" height="6.4"/>
	<rect x="456.3" y="85.9" class="st3" width="10.8" height="6.4"/>
	<rect x="456.3" y="95.5" class="st3" width="10.8" height="6.4"/>
	<rect x="456.3" y="104.9" class="st4" width="10.8" height="6.4"/>
	<rect x="456.3" y="114.5" class="st4" width="10.8" height="6.4"/>
	<rect x="456.3" y="124" class="st4" width="10.8" height="6.4"/>
	<rect x="456.3" y="133.7" class="st5" width="10.8" height="6.4"/>
	<rect x="456.3" y="143.1" class="st5" width="10.8" height="6.4"/>
	<rect x="475.2" y="47.6" class="st2" width="10.8" height="6.4"/>
	<rect x="475.2" y="57.5" class="st3" width="10.8" height="6.4"/>
	<rect x="475.2" y="67" class="st3" width="10.8" height="6.4"/>
	<rect x="475.2" y="76.6" class="st3" width="10.8" height="6.4"/>
	<rect x="475.2" y="86" class="st3" width="10.8" height="6.4"/>
	<rect x="475.2" y="95.6" class="st3" width="10.8" height="6.4"/>
	<rect x="475.2" y="105.1" class="st4" width="10.8" height="6.4"/>
	<rect x="475.2" y="114.6" class="st4" width="10.8" height="6.4"/>
	<rect x="475.2" y="124.1" class="st4" width="10.8" height="6.4"/>
	<rect x="475.2" y="133.8" class="st5" width="10.8" height="6.4"/>
	<rect x="475.2" y="143.3" class="st5" width="10.8" height="6.4"/>
	<rect x="475.2" y="152.9" class="st5" width="10.8" height="6.4"/>
	<rect x="475.2" y="162.3" class="st6" width="10.8" height="6.4"/>
	<rect x="494.4" y="38.2" class="st2" width="10.8" height="6.4"/>
	<rect x="494.4" y="47.7" class="st2" width="10.8" height="6.4"/>
	<rect x="494.4" y="67.1" class="st3" width="10.8" height="6.4"/>
	<rect x="494.4" y="76.7" class="st3" width="10.8" height="6.4"/>
	<rect x="494.4" y="86.1" class="st3" width="10.8" height="6.4"/>
	<rect x="494.4" y="95.7" class="st3" width="10.8" height="6.4"/>
	<rect x="494.4" y="105.2" class="st4" width="10.8" height="6.4"/>
	<rect x="494.4" y="114.7" class="st4" width="10.8" height="6.4"/>
	<rect x="494.4" y="124.2" class="st4" width="10.8" height="6.4"/>
	<rect x="494.4" y="133.9" class="st5" width="10.8" height="6.4"/>
	<rect x="494.4" y="143.4" class="st5" width="10.8" height="6.4"/>
	<rect x="494.4" y="152.9" class="st5" width="10.8" height="6.4"/>
	<rect x="494.4" y="162.4" class="st6" width="10.8" height="6.4"/>
	<rect x="494.4" y="172" class="st6" width="10.8" height="6.4"/>
	<rect x="494.4" y="181.5" class="st6" width="10.8" height="6.4"/>
	<rect x="514.2" y="9.6" class="st1" width="10.8" height="6.4"/>
	<rect x="514.2" y="86.1" class="st3" width="10.8" height="6.4"/>
	<rect x="514.2" y="95.7" class="st3" width="10.8" height="6.4"/>
	<rect x="514.2" y="105.1" class="st4" width="10.8" height="6.4"/>
	<rect x="514.2" y="114.7" class="st4" width="10.8" height="6.4"/>
	<rect x="514.2" y="124.2" class="st4" width="10.8" height="6.4"/>
	<rect x="514.2" y="133.9" class="st5" width="10.8" height="6.4"/>
	<rect x="514.2" y="143.3" class="st5" width="10.8" height="6.4"/>
	<rect x="514.2" y="152.9" class="st5" width="10.8" height="6.4"/>
	<rect x="514.2" y="162.4" class="st6" width="10.8" height="6.4"/>
	<rect x="514.2" y="172" class="st6" width="10.8" height="6.4"/>
	<rect x="514.2" y="181.4" class="st6" width="10.8" height="6.4"/>
	<rect x="533.4" y="47.4" class="st2" width="10.8" height="6.4"/>
	<rect x="533.4" y="66.8" class="st3" width="10.8" height="6.4"/>
	<rect x="533.4" y="76.4" class="st3" width="10.8" height="6.4"/>
	<rect x="533.4" y="85.9" class="st3" width="10.8" height="6.4"/>
	<rect x="533.4" y="95.4" class="st3" width="10.8" height="6.4"/>
	<rect x="533.4" y="104.9" class="st4" width="10.8" height="6.4"/>
	<rect x="533.4" y="114.5" class="st4" width="10.8" height="6.4"/>
	<rect x="533.4" y="123.9" class="st4" width="10.8" height="6.4"/>
	<rect x="533.4" y="133.6" class="st5" width="10.8" height="6.4"/>
	<rect x="533.4" y="143.1" class="st5" width="10.8" height="6.4"/>
	<rect x="533.4" y="152.7" class="st5" width="10.8" height="6.4"/>
	<rect x="552.2" y="38.1" class="st2" width="10.8" height="6.4"/>
	<rect x="552.2" y="47.6" class="st2" width="10.8" height="6.4"/>
	<rect x="552.2" y="57.5" class="st3" width="10.8" height="6.4"/>
	<rect x="552.2" y="67" class="st3" width="10.8" height="6.4"/>
	<rect x="552.2" y="76.5" class="st3" width="10.8" height="6.4"/>
	<rect x="552.2" y="86" class="st3" width="10.8" height="6.4"/>
	<rect x="552.2" y="95.6" class="st3" width="10.8" height="6.4"/>
	<rect x="552.2" y="105.1" class="st4" width="10.8" height="6.4"/>
	<rect x="552.2" y="114.6" class="st4" width="10.8" height="6.4"/>
	<rect x="552.2" y="124.1" class="st4" width="10.8" height="6.4"/>
	<rect x="552.2" y="133.8" class="st5" width="10.8" height="6.4"/>
	<rect x="552.2" y="143.3" class="st5" width="10.8" height="6.4"/>
	<rect x="552.2" y="152.8" class="st5" width="10.8" height="6.4"/>
	<rect x="571.4" y="76.6" class="st3" width="10.8" height="6.4"/>
	<rect x="571.4" y="95.7" class="st3" width="10.8" height="6.4"/>
	<rect x="571.4" y="105.1" class="st4" width="10.8" height="6.4"/>
	<rect x="571.4" y="114.7" class="st4" width="10.8" height="6.4"/>
	<rect x="571.4" y="124.2" class="st4" width="10.8" height="6.4"/>
	<rect x="571.4" y="133.9" class="st5" width="10.8" height="6.4"/>
	<rect x="571.4" y="143.3" class="st5" width="10.8" height="6.4"/>
	<rect x="571.4" y="152.9" class="st5" width="10.8" height="6.4"/>
	<rect x="571.4" y="162.4" class="st6" width="10.8" height="6.4"/>
	<rect x="590.8" y="9.6" class="st1" width="10.8" height="6.4"/>
	<rect x="590.8" y="19.1" class="st7" width="10.8" height="6.4"/>
	<rect x="590.8" y="28.6" class="st7" width="10.8" height="6.4"/>
	<rect x="590.8" y="38.2" class="st2" width="10.8" height="6.4"/>
	<rect x="590.8" y="47.6" class="st2" width="10.8" height="6.4"/>
	<rect x="590.8" y="57.6" class="st3" width="10.8" height="6.4"/>
	<rect x="590.8" y="67.1" class="st3" width="10.8" height="6.4"/>
	<rect x="590.8" y="76.6" class="st3" width="10.8" height="6.4"/>
	<rect x="590.8" y="86.1" class="st3" width="10.8" height="6.4"/>
	<rect x="590.8" y="95.7" class="st3" width="10.8" height="6.4"/>
	<rect x="590.8" y="105.1" class="st4" width="10.8" height="6.4"/>
	<rect x="590.8" y="114.7" class="st4" width="10.8" height="6.4"/>
	<rect x="590.8" y="124.2" class="st4" width="10.8" height="6.4"/>
	<rect x="590.8" y="133.9" class="st5" width="10.8" height="6.4"/>
	<rect x="610" y="18.9" class="st7" width="10.8" height="6.4"/>
	<rect x="610" y="28.4" class="st7" width="10.8" height="6.4"/>
	<rect x="610" y="37.9" class="st2" width="10.8" height="6.4"/>
	<rect x="610" y="47.4" class="st2" width="10.8" height="6.4"/>
	<rect x="610" y="57.3" class="st3" width="10.8" height="6.4"/>
	<rect x="610" y="66.8" class="st3" width="10.8" height="6.4"/>
	<rect x="610" y="76.4" class="st3" width="10.8" height="6.4"/>
	<rect x="610" y="85.9" class="st3" width="10.8" height="6.4"/>
	<rect x="610" y="95.4" class="st3" width="10.8" height="6.4"/>
	<rect x="610" y="104.9" class="st4" width="10.8" height="6.4"/>
	<rect x="628.8" y="28.6" class="st7" width="10.8" height="6.4"/>
	<rect x="628.8" y="38.1" class="st2" width="10.8" height="6.4"/>
	<rect x="628.8" y="47.6" class="st2" width="10.8" height="6.4"/>
	<rect x="628.8" y="57.5" class="st3" width="10.8" height="6.4"/>
	<rect x="628.8" y="67" class="st3" width="10.8" height="6.4"/>
	<rect x="628.8" y="76.5" class="st3" width="10.8" height="6.4"/>
	<rect x="628.8" y="86" class="st3" width="10.8" height="6.4"/>
	<rect x="628.8" y="95.6" class="st3" width="10.8" height="6.4"/>
	<rect x="628.8" y="105.1" class="st4" width="10.8" height="6.4"/>
	<rect x="648" y="9.6" class="st1" width="10.8" height="6.4"/>
	<rect x="648" y="19.2" class="st7" width="10.8" height="6.4"/>
	<rect x="648" y="28.6" class="st7" width="10.8" height="6.4"/>
	<rect x="648" y="38.2" class="st2" width="10.8" height="6.4"/>
	<rect x="648" y="47.7" class="st2" width="10.8" height="6.4"/>
	<rect x="648" y="57.6" class="st3" width="10.8" height="6.4"/>
	<rect x="648" y="67.1" class="st3" width="10.8" height="6.4"/>
	<rect x="648" y="76.6" class="st3" width="10.8" height="6.4"/>
	<rect x="648" y="86.1" class="st3" width="10.8" height="6.4"/>
	<rect x="667.4" y="19.4" class="st7" width="10.8" height="6.4"/>
	<rect x="667.4" y="28.8" class="st7" width="10.8" height="6.4"/>
	<rect x="667.4" y="38.4" class="st2" width="10.8" height="6.4"/>
	<rect x="667.4" y="47.9" class="st2" width="10.8" height="6.4"/>
	<rect x="667.4" y="57.8" class="st3" width="10.8" height="6.4"/>
	<rect x="667.4" y="67.3" class="st3" width="10.8" height="6.4"/>
	<rect x="667.4" y="76.8" class="st3" width="10.8" height="6.4"/>
	<rect x="667.4" y="86.3" class="st3" width="10.8" height="6.4"/>
	<rect x="687.3" y="38.4" class="st2" width="10.8" height="6.4"/>
	<rect x="687.3" y="57.7" class="st3" width="10.8" height="6.4"/>
	<rect x="687.3" y="67.2" class="st3" width="10.8" height="6.4"/>
	<rect x="687.3" y="76.8" class="st3" width="10.8" height="6.4"/>
	<rect x="687.3" y="86.3" class="st3" width="10.8" height="6.4"/>
	<rect x="687.3" y="95.8" class="st3" width="10.8" height="6.4"/>
	<rect x="687.3" y="105.3" class="st4" width="10.8" height="6.4"/>
	<rect x="687.3" y="114.9" class="st4" width="10.8" height="6.4"/>
	<rect x="687.3" y="124.3" class="st4" width="10.8" height="6.4"/>
	<rect x="706.5" y="19.4" class="st7" width="10.8" height="6.4"/>
	<rect x="706.5" y="28.9" class="st7" width="10.8" height="6.4"/>
	<rect x="706.5" y="38.4" class="st2" width="10.8" height="6.4"/>
	<rect x="706.5" y="47.9" class="st2" width="10.8" height="6.4"/>
	<rect x="706.5" y="57.8" class="st3" width="10.8" height="6.4"/>
	<rect x="706.5" y="67.3" class="st3" width="10.8" height="6.4"/>
	<rect x="706.5" y="76.9" class="st3" width="10.8" height="6.4"/>
	<rect x="706.5" y="86.3" class="st3" width="10.8" height="6.4"/>
	<rect x="706.5" y="95.9" class="st3" width="10.8" height="6.4"/>
	<rect x="706.5" y="105.4" class="st4" width="10.8" height="6.4"/>
	<rect x="706.5" y="114.9" class="st4" width="10.8" height="6.4"/>
	<rect x="706.5" y="124.4" class="st4" width="10.8" height="6.4"/>
	<rect x="725.3" y="47.8" class="st2" width="10.8" height="6.4"/>
	<rect x="725.3" y="67.1" class="st3" width="10.8" height="6.4"/>
	<rect x="725.3" y="76.7" class="st3" width="10.8" height="6.4"/>
	<rect x="725.3" y="86.2" class="st3" width="10.8" height="6.4"/>
	<rect x="725.3" y="95.8" class="st3" width="10.8" height="6.4"/>
	<rect x="725.3" y="105.2" class="st4" width="10.8" height="6.4"/>
	<rect x="725.3" y="114.8" class="st4" width="10.8" height="6.4"/>
	<rect x="725.3" y="124.3" class="st4" width="10.8" height="6.4"/>
	<rect x="725.3" y="134" class="st5" width="10.8" height="6.4"/>
	<rect x="725.3" y="143.4" class="st5" width="10.8" height="6.4"/>
	<rect x="744.5" y="67.2" class="st3" width="10.8" height="6.4"/>
	<rect x="744.5" y="86.3" class="st3" width="10.8" height="6.4"/>
	<rect x="744.5" y="95.8" class="st3" width="10.8" height="6.4"/>
	<rect x="744.5" y="105.3" class="st4" width="10.8" height="6.4"/>
	<rect x="744.5" y="114.9" class="st4" width="10.8" height="6.4"/>
	<rect x="744.5" y="124.3" class="st4" width="10.8" height="6.4"/>
	<rect x="744.5" y="134.1" class="st5" width="10.8" height="6.4"/>
	<rect x="744.5" y="143.5" class="st5" width="10.8" height="6.4"/>
	<rect x="744.5" y="153.1" class="st5" width="10.8" height="6.4"/>
	<rect x="744.5" y="162.6" class="st6" width="10.8" height="6.4"/>
	<rect x="763.8" y="57.7" class="st3" width="10.8" height="6.4"/>
	<rect x="763.8" y="67.2" class="st3" width="10.8" height="6.4"/>
	<rect x="763.8" y="76.8" class="st3" width="10.8" height="6.4"/>
	<rect x="763.8" y="86.3" class="st3" width="10.8" height="6.4"/>
	<rect x="763.8" y="95.8" class="st3" width="10.8" height="6.4"/>
	<rect x="763.8" y="105.3" class="st4" width="10.8" height="6.4"/>
	<rect x="763.8" y="114.9" class="st4" width="10.8" height="6.4"/>
	<rect x="763.8" y="124.3" class="st4" width="10.8" height="6.4"/>
	<rect x="763.8" y="134" class="st5" width="10.8" height="6.4"/>
	<rect x="763.8" y="143.5" class="st5" width="10.8" height="6.4"/>
	<rect x="763.8" y="153.1" class="st5" width="10.8" height="6.4"/>
	<rect x="763.8" y="162.6" class="st6" width="10.8" height="6.4"/>
	<rect x="763.8" y="172.1" class="st6" width="10.8" height="6.4"/>
	<rect x="783" y="9.5" class="st1" width="10.8" height="6.4"/>
	<rect x="783" y="28.6" class="st7" width="10.8" height="6.4"/>
	<rect x="783" y="38.1" class="st2" width="10.8" height="6.4"/>
	<rect x="783" y="47.6" class="st2" width="10.8" height="6.4"/>
	<rect x="783" y="57.5" class="st3" width="10.8" height="6.4"/>
	<rect x="783" y="67" class="st3" width="10.8" height="6.4"/>
	<rect x="783" y="76.5" class="st3" width="10.8" height="6.4"/>
	<rect x="783" y="86" class="st3" width="10.8" height="6.4"/>
	<rect x="783" y="95.6" class="st3" width="10.8" height="6.4"/>
	<rect x="783" y="105.1" class="st4" width="10.8" height="6.4"/>
	<rect x="783" y="114.6" class="st4" width="10.8" height="6.4"/>
	<rect x="783" y="124.1" class="st4" width="10.8" height="6.4"/>
	<rect x="783" y="133.8" class="st5" width="10.8" height="6.4"/>
	<rect x="783" y="143.3" class="st5" width="10.8" height="6.4"/>
	<rect x="783" y="152.8" class="st5" width="10.8" height="6.4"/>
	<rect x="783" y="162.3" class="st6" width="10.8" height="6.4"/>
	<rect x="783" y="171.9" class="st6" width="10.8" height="6.4"/>
	<rect x="783" y="181.4" class="st6" width="10.8" height="6.4"/>
	<rect x="801.9" y="28.7" class="st7" width="10.8" height="6.4"/>
	<rect x="801.9" y="38.3" class="st2" width="10.8" height="6.4"/>
	<rect x="801.9" y="47.8" class="st2" width="10.8" height="6.4"/>
	<rect x="801.9" y="57.7" class="st3" width="10.8" height="6.4"/>
	<rect x="801.9" y="67.1" class="st3" width="10.8" height="6.4"/>
	<rect x="801.9" y="76.7" class="st3" width="10.8" height="6.4"/>
	<rect x="801.9" y="86.2" class="st3" width="10.8" height="6.4"/>
	<rect x="801.9" y="95.8" class="st3" width="10.8" height="6.4"/>
	<rect x="801.9" y="105.2" class="st4" width="10.8" height="6.4"/>
	<rect x="801.9" y="114.8" class="st4" width="10.8" height="6.4"/>
	<rect x="801.9" y="124.3" class="st4" width="10.8" height="6.4"/>
	<rect x="801.9" y="134" class="st5" width="10.8" height="6.4"/>
	<rect x="801.9" y="143.4" class="st5" width="10.8" height="6.4"/>
	<rect x="801.9" y="153" class="st5" width="10.8" height="6.4"/>
	<rect x="801.9" y="162.5" class="st6" width="10.8" height="6.4"/>
	<rect x="801.9" y="172" class="st6" width="10.8" height="6.4"/>
	<rect x="801.9" y="181.5" class="st6" width="10.8" height="6.4"/>
	<rect x="821.1" y="38.4" class="st2" width="10.8" height="6.4"/>
	<rect x="821.1" y="47.8" class="st2" width="10.8" height="6.4"/>
	<rect x="821.1" y="67.2" class="st3" width="10.8" height="6.4"/>
	<rect x="821.1" y="76.8" class="st3" width="10.8" height="6.4"/>
	<rect x="821.1" y="86.3" class="st3" width="10.8" height="6.4"/>
	<rect x="821.1" y="95.8" class="st3" width="10.8" height="6.4"/>
	<rect x="821.1" y="105.3" class="st4" width="10.8" height="6.4"/>
	<rect x="821.1" y="114.9" class="st4" width="10.8" height="6.4"/>
	<rect x="821.1" y="124.3" class="st4" width="10.8" height="6.4"/>
	<rect x="821.1" y="134.1" class="st5" width="10.8" height="6.4"/>
	<rect x="821.1" y="143.5" class="st5" width="10.8" height="6.4"/>
	<rect x="821.1" y="153.1" class="st5" width="10.8" height="6.4"/>
	<rect x="821.1" y="162.6" class="st6" width="10.8" height="6.4"/>
	<rect x="821.1" y="172.1" class="st6" width="10.8" height="6.4"/>
	<path class="st0" d="M2.5,94.4c2.8,2.7,7.2,2.7,9.9-0.1c1.1-1.1,1.8-2.6,2-4.1h49.1l63.9,44c-1.9,3.4-0.6,7.7,2.8,9.5
		c3.4,1.9,7.7,0.6,9.5-2.8c0.4-0.8,0.7-1.7,0.8-2.6H155c0.4,3.6,3.4,6.3,7,6.3c0.3,0,0.5,0,0.8,0l7.4,25.4c-3.6,1.5-5.3,5.6-3.8,9.2
		c1.5,3.6,5.6,5.3,9.2,3.8c3.4-1.4,5.2-5.2,4-8.8l39.5-18.2c0.3,0.5,0.6,0.9,1,1.3c2.9,2.6,7.3,2.4,9.9-0.5c2.4-2.7,2.4-6.8,0-9.5
		c-0.4-0.4-0.9-0.8-1.4-1.1l18.7-42.4c3.6,1.5,7.7-0.3,9.1-3.8l21.7,7.1c-0.1,0.5-0.1,1-0.1,1.4c0,3.9,3.1,7,7,7.1
		c3.9,0,7-3.1,7.1-7c0-1.7-0.6-3.4-1.7-4.7l31-33.4c2.7,2.4,6.7,2.3,9.4-0.1l61.5,69.2c-2.3,3.1-1.5,7.5,1.6,9.8
		c3.1,2.3,7.5,1.5,9.8-1.6c2-2.8,1.7-6.6-0.7-9c-0.2-0.2-0.4-0.4-0.6-0.5l24.5-48h31.1c0.4,3.9,3.9,6.6,7.7,6.2
		c3.9-0.4,6.6-3.9,6.2-7.7c-0.4-3.9-3.9-6.6-7.7-6.2c-3.3,0.4-5.8,2.9-6.2,6.2h-32l-24.8,48.7c-2.5-1.2-5.5-0.8-7.6,1l-61.5-69.2
		c2.2-3.2,1.4-7.6-1.8-9.8c-3.2-2.2-7.6-1.4-9.8,1.8c-1.7,2.5-1.6,5.7,0.1,8.1l-31.1,33.5c-2.8-2.1-6.7-1.8-9.1,0.7
		c-0.6,0.6-1.1,1.3-1.4,2.1l-21.8-7.1c0.1-0.4,0.1-0.8,0.1-1.2c0-3.9-3.2-7-7.1-7c-3.9,0-7,3.2-7,7.1c0,1.8,0.7,3.6,2,4.9
		c0.3,0.3,0.6,0.6,0.9,0.8l-18.8,42.4c-0.7-0.2-1.4-0.3-2.1-0.3c-3.9,0-7,3.1-7,7c0,0,0,0,0,0c0,0.8,0.1,1.5,0.4,2.2l-39.5,18.2
		c-0.3-0.5-0.6-0.9-1-1.3c-1.3-1.3-3.1-2.1-5-2.1c-0.4,0-0.8,0-1.2,0.1l-7.4-25.3c3.7-1.3,5.6-5.3,4.3-8.9c-1.3-3.7-5.3-5.6-8.9-4.3
		c-1,0.3-1.9,0.9-2.7,1.7c-1.1,1.1-1.8,2.6-2,4.2h-14.4c-0.4-3.9-3.9-6.6-7.7-6.2c-1.6,0.2-3.1,0.9-4.2,2c-0.1,0.1-0.2,0.3-0.3,0.4
		L64.1,88.6H14.5c-0.4-3.9-3.9-6.7-7.7-6.2c-3.9,0.4-6.7,3.9-6.2,7.7C0.6,91.7,1.4,93.2,2.5,94.4L2.5,94.4z M460.8,85.5
		c2.1-2.1,5.6-2.1,7.8,0s2.1,5.6,0,7.8c-2.1,2.1-5.6,2.1-7.8,0c-1-1-1.6-2.4-1.6-3.9C459.2,88,459.8,86.6,460.8,85.5z M393.9,139.8
		c2.1-2.1,5.6-2.2,7.8,0c2.1,2.1,2.2,5.6,0,7.8c-2.1,2.1-5.6,2.2-7.8,0c-1-1-1.6-2.4-1.6-3.9C392.3,142.3,392.9,140.9,393.9,139.8
		L393.9,139.8z M322,61.4c2.1-2.1,5.6-2.2,7.8,0c2.1,2.1,2.2,5.6,0,7.8c-2.1,2.1-5.6,2.2-7.8,0c-1-1-1.6-2.4-1.6-3.9
		C320.4,63.8,321,62.4,322,61.4z M281.1,104.7c2.1-2.1,5.6-2.1,7.8,0c2.1,2.1,2.1,5.6,0,7.8c-2.1,2.1-5.6,2.1-7.8,0
		c-1-1-1.6-2.4-1.6-3.9C279.5,107.1,280,105.7,281.1,104.7L281.1,104.7z M244.4,97.4c0-3,2.5-5.5,5.5-5.5c3,0,5.5,2.5,5.5,5.5
		c0,3-2.5,5.5-5.5,5.5c-1.5,0-2.8-0.6-3.9-1.6C244.9,100.3,244.4,98.9,244.4,97.4z M221.1,148.5c2.1-2.1,5.6-2.1,7.8,0
		c2.1,2.1,2.1,5.6,0,7.8c-2.1,2.1-5.6,2.1-7.8,0c-1-1-1.6-2.4-1.6-3.9C219.4,150.9,220,149.5,221.1,148.5L221.1,148.5z M172.8,170.8
		c3,0,5.5,2.5,5.5,5.5c0,3-2.5,5.5-5.5,5.5c-3,0-5.5-2.5-5.5-5.5c0-1.5,0.6-2.8,1.6-3.9C169.9,171.4,171.3,170.8,172.8,170.8z
		 M158.1,133.6c2.1-2.1,5.6-2.1,7.8,0c2.1,2.1,2.1,5.6,0,7.8c-2.1,2.1-5.6,2.1-7.8,0c-1-1-1.6-2.4-1.6-3.9
		C156.5,136,157,134.6,158.1,133.6L158.1,133.6z M129.7,133.6c2.1-2.1,5.6-2.1,7.8,0c2.1,2.1,2.1,5.6,0,7.8c-2.1,2.1-5.6,2.1-7.8,0
		c-1-1-1.6-2.4-1.6-3.9C128.1,136,128.7,134.6,129.7,133.6L129.7,133.6z M3.6,85.5c2.1-2.1,5.6-2.1,7.8,0c2.1,2.1,2.1,5.6,0,7.8
		c-2.1,2.1-5.6,2.1-7.8,0c-1-1-1.6-2.4-1.6-3.9C2,88,2.6,86.6,3.6,85.5z"/>
	<rect x="463.6" y="264" class="st1" width="10.8" height="6.4"/>
	<rect x="463.6" y="235.3" class="st2" width="10.8" height="6.4"/>
	<rect x="463.6" y="225.9" class="st2" width="10.8" height="6.4"/>
	<rect x="463.6" y="216" class="st3" width="10.8" height="6.4"/>
	<rect x="463.6" y="206.5" class="st3" width="10.8" height="6.4"/>
	<rect x="463.6" y="196.9" class="st3" width="10.8" height="6.4"/>
	<rect x="463.6" y="187.4" class="st3" width="10.8" height="6.4"/>
	<rect x="463.6" y="177.9" class="st3" width="10.8" height="6.4"/>
	<rect x="463.6" y="168.4" class="st4" width="10.8" height="6.4"/>
	<rect x="463.6" y="158.8" class="st4" width="10.8" height="6.4"/>
	<rect x="463.6" y="149.4" class="st4" width="10.8" height="6.4"/>
	<rect x="463.6" y="139.7" class="st5" width="10.8" height="6.4"/>
	<rect x="463.6" y="130.2" class="st5" width="10.8" height="6.4"/>
	<rect x="463.6" y="120.6" class="st5" width="10.8" height="6.4"/>
	<rect x="463.6" y="111.2" class="st6" width="10.8" height="6.4"/>
	<rect x="463.6" y="101.6" class="st6" width="10.8" height="6.4"/>
	<rect x="444.4" y="245.1" class="st7" width="10.8" height="6.4"/>
	<rect x="444.4" y="235.6" class="st2" width="10.8" height="6.4"/>
	<rect x="444.4" y="226.1" class="st2" width="10.8" height="6.4"/>
	<rect x="444.4" y="216.2" class="st3" width="10.8" height="6.4"/>
	<rect x="444.4" y="206.7" class="st3" width="10.8" height="6.4"/>
	<rect x="444.4" y="197.2" class="st3" width="10.8" height="6.4"/>
	<rect x="444.4" y="187.7" class="st3" width="10.8" height="6.4"/>
	<rect x="444.4" y="178.1" class="st3" width="10.8" height="6.4"/>
	<rect x="444.4" y="168.6" class="st4" width="10.8" height="6.4"/>
	<rect x="444.4" y="159.1" class="st4" width="10.8" height="6.4"/>
	<rect x="444.4" y="149.6" class="st4" width="10.8" height="6.4"/>
	<rect x="444.4" y="139.9" class="st5" width="10.8" height="6.4"/>
	<rect x="444.4" y="130.4" class="st5" width="10.8" height="6.4"/>
	<rect x="444.4" y="120.9" class="st5" width="10.8" height="6.4"/>
	<rect x="444.4" y="111.4" class="st6" width="10.8" height="6.4"/>
	<rect x="444.4" y="101.8" class="st6" width="10.8" height="6.4"/>
	<rect x="444.4" y="92.3" class="st6" width="10.8" height="6.4"/>
	<rect x="425.6" y="254.5" class="st7" width="10.8" height="6.4"/>
	<rect x="425.6" y="245" class="st7" width="10.8" height="6.4"/>
	<rect x="425.6" y="235.4" class="st2" width="10.8" height="6.4"/>
	<rect x="425.6" y="225.9" class="st2" width="10.8" height="6.4"/>
	<rect x="425.6" y="216" class="st3" width="10.8" height="6.4"/>
	<rect x="425.6" y="206.6" class="st3" width="10.8" height="6.4"/>
	<rect x="425.6" y="197" class="st3" width="10.8" height="6.4"/>
	<rect x="425.6" y="187.5" class="st3" width="10.8" height="6.4"/>
	<rect x="425.6" y="178" class="st3" width="10.8" height="6.4"/>
	<rect x="425.6" y="168.5" class="st4" width="10.8" height="6.4"/>
	<rect x="425.6" y="158.9" class="st4" width="10.8" height="6.4"/>
	<rect x="425.6" y="149.4" class="st4" width="10.8" height="6.4"/>
	<rect x="425.6" y="139.7" class="st5" width="10.8" height="6.4"/>
	<rect x="425.6" y="130.3" class="st5" width="10.8" height="6.4"/>
	<rect x="425.6" y="120.7" class="st5" width="10.8" height="6.4"/>
	<rect x="425.6" y="111.2" class="st6" width="10.8" height="6.4"/>
	<rect x="425.6" y="101.7" class="st6" width="10.8" height="6.4"/>
	<rect x="425.6" y="92.2" class="st6" width="10.8" height="6.4"/>
	<rect x="406.4" y="206.5" class="st3" width="10.8" height="6.4"/>
	<rect x="406.4" y="196.9" class="st3" width="10.8" height="6.4"/>
	<rect x="406.4" y="187.4" class="st3" width="10.8" height="6.4"/>
	<rect x="406.4" y="177.9" class="st3" width="10.8" height="6.4"/>
	<rect x="406.4" y="168.4" class="st4" width="10.8" height="6.4"/>
	<rect x="406.4" y="158.8" class="st4" width="10.8" height="6.4"/>
	<rect x="406.4" y="149.4" class="st4" width="10.8" height="6.4"/>
	<rect x="406.4" y="139.6" class="st5" width="10.8" height="6.4"/>
	<rect x="406.4" y="130.2" class="st5" width="10.8" height="6.4"/>
	<rect x="387" y="254.4" class="st7" width="10.8" height="6.4"/>
	<rect x="387" y="244.9" class="st7" width="10.8" height="6.4"/>
	<rect x="387" y="235.3" class="st2" width="10.8" height="6.4"/>
	<rect x="387" y="225.9" class="st2" width="10.8" height="6.4"/>
	<rect x="387" y="216" class="st3" width="10.8" height="6.4"/>
	<rect x="387" y="206.5" class="st3" width="10.8" height="6.4"/>
	<rect x="387" y="196.9" class="st3" width="10.8" height="6.4"/>
	<rect x="387" y="187.4" class="st3" width="10.8" height="6.4"/>
	<rect x="387" y="177.9" class="st3" width="10.8" height="6.4"/>
	<rect x="387" y="168.4" class="st4" width="10.8" height="6.4"/>
	<rect x="387" y="158.8" class="st4" width="10.8" height="6.4"/>
	<rect x="367.9" y="254.6" class="st7" width="10.8" height="6.4"/>
	<rect x="367.9" y="245.1" class="st7" width="10.8" height="6.4"/>
	<rect x="367.9" y="235.6" class="st2" width="10.8" height="6.4"/>
	<rect x="367.9" y="226.1" class="st2" width="10.8" height="6.4"/>
	<rect x="367.9" y="216.2" class="st3" width="10.8" height="6.4"/>
	<rect x="367.9" y="206.7" class="st3" width="10.8" height="6.4"/>
	<rect x="367.9" y="197.2" class="st3" width="10.8" height="6.4"/>
	<rect x="367.9" y="187.7" class="st3" width="10.8" height="6.4"/>
	<rect x="367.9" y="178.1" class="st3" width="10.8" height="6.4"/>
	<rect x="367.9" y="168.6" class="st4" width="10.8" height="6.4"/>
	<rect x="367.9" y="159.1" class="st4" width="10.8" height="6.4"/>
	<rect x="367.9" y="149.6" class="st4" width="10.8" height="6.4"/>
	<rect x="367.9" y="139.9" class="st5" width="10.8" height="6.4"/>
	<rect x="367.9" y="130.4" class="st5" width="10.8" height="6.4"/>
	<rect x="349" y="225.9" class="st2" width="10.8" height="6.4"/>
	<rect x="349" y="216" class="st3" width="10.8" height="6.4"/>
	<rect x="349" y="206.6" class="st3" width="10.8" height="6.4"/>
	<rect x="349" y="197" class="st3" width="10.8" height="6.4"/>
	<rect x="349" y="187.5" class="st3" width="10.8" height="6.4"/>
	<rect x="349" y="178" class="st3" width="10.8" height="6.4"/>
	<rect x="349" y="168.5" class="st4" width="10.8" height="6.4"/>
	<rect x="349" y="158.9" class="st4" width="10.8" height="6.4"/>
	<rect x="349" y="149.4" class="st4" width="10.8" height="6.4"/>
	<rect x="349" y="139.7" class="st5" width="10.8" height="6.4"/>
	<rect x="349" y="130.3" class="st5" width="10.8" height="6.4"/>
	<rect x="349" y="120.7" class="st5" width="10.8" height="6.4"/>
	<rect x="349" y="111.2" class="st6" width="10.8" height="6.4"/>
	<rect x="329.8" y="235.3" class="st2" width="10.8" height="6.4"/>
	<rect x="329.8" y="225.9" class="st2" width="10.8" height="6.4"/>
	<rect x="329.8" y="206.5" class="st3" width="10.8" height="6.4"/>
	<rect x="329.8" y="196.9" class="st3" width="10.8" height="6.4"/>
	<rect x="329.8" y="187.4" class="st3" width="10.8" height="6.4"/>
	<rect x="329.8" y="177.9" class="st3" width="10.8" height="6.4"/>
	<rect x="329.8" y="168.4" class="st4" width="10.8" height="6.4"/>
	<rect x="329.8" y="158.8" class="st4" width="10.8" height="6.4"/>
	<rect x="329.8" y="149.4" class="st4" width="10.8" height="6.4"/>
	<rect x="329.8" y="139.6" class="st5" width="10.8" height="6.4"/>
	<rect x="329.8" y="130.2" class="st5" width="10.8" height="6.4"/>
	<rect x="329.8" y="120.6" class="st5" width="10.8" height="6.4"/>
	<rect x="329.8" y="111.1" class="st6" width="10.8" height="6.4"/>
	<rect x="329.8" y="101.6" class="st6" width="10.8" height="6.4"/>
	<rect x="329.8" y="92.1" class="st6" width="10.8" height="6.4"/>
	<rect x="310" y="264" class="st1" width="10.8" height="6.4"/>
	<rect x="310" y="187.5" class="st3" width="10.8" height="6.4"/>
	<rect x="310" y="177.9" class="st3" width="10.8" height="6.4"/>
	<rect x="310" y="168.4" class="st4" width="10.8" height="6.4"/>
	<rect x="310" y="158.9" class="st4" width="10.8" height="6.4"/>
	<rect x="310" y="149.4" class="st4" width="10.8" height="6.4"/>
	<rect x="310" y="139.7" class="st5" width="10.8" height="6.4"/>
	<rect x="310" y="130.2" class="st5" width="10.8" height="6.4"/>
	<rect x="310" y="120.7" class="st5" width="10.8" height="6.4"/>
	<rect x="310" y="111.2" class="st6" width="10.8" height="6.4"/>
	<rect x="310" y="101.6" class="st6" width="10.8" height="6.4"/>
	<rect x="310" y="92.1" class="st6" width="10.8" height="6.4"/>
	<rect x="290.8" y="226.1" class="st2" width="10.8" height="6.4"/>
	<rect x="290.8" y="206.7" class="st3" width="10.8" height="6.4"/>
	<rect x="290.8" y="197.2" class="st3" width="10.8" height="6.4"/>
	<rect x="290.8" y="187.7" class="st3" width="10.8" height="6.4"/>
	<rect x="290.8" y="178.1" class="st3" width="10.8" height="6.4"/>
	<rect x="290.8" y="168.7" class="st4" width="10.8" height="6.4"/>
	<rect x="290.8" y="159.1" class="st4" width="10.8" height="6.4"/>
	<rect x="290.8" y="149.6" class="st4" width="10.8" height="6.4"/>
	<rect x="290.8" y="139.9" class="st5" width="10.8" height="6.4"/>
	<rect x="290.8" y="130.4" class="st5" width="10.8" height="6.4"/>
	<rect x="290.8" y="120.9" class="st5" width="10.8" height="6.4"/>
	<rect x="272" y="235.5" class="st2" width="10.8" height="6.4"/>
	<rect x="272" y="226" class="st2" width="10.8" height="6.4"/>
	<rect x="272" y="216.1" class="st3" width="10.8" height="6.4"/>
	<rect x="272" y="206.6" class="st3" width="10.8" height="6.4"/>
	<rect x="272" y="197" class="st3" width="10.8" height="6.4"/>
	<rect x="272" y="187.6" class="st3" width="10.8" height="6.4"/>
	<rect x="272" y="178" class="st3" width="10.8" height="6.4"/>
	<rect x="272" y="168.5" class="st4" width="10.8" height="6.4"/>
	<rect x="272" y="159" class="st4" width="10.8" height="6.4"/>
	<rect x="272" y="149.5" class="st4" width="10.8" height="6.4"/>
	<rect x="272" y="139.8" class="st5" width="10.8" height="6.4"/>
	<rect x="272" y="130.3" class="st5" width="10.8" height="6.4"/>
	<rect x="272" y="120.7" class="st5" width="10.8" height="6.4"/>
	<rect x="252.8" y="197" class="st3" width="10.8" height="6.4"/>
	<rect x="252.8" y="177.9" class="st3" width="10.8" height="6.4"/>
	<rect x="252.8" y="168.4" class="st4" width="10.8" height="6.4"/>
	<rect x="252.8" y="158.9" class="st4" width="10.8" height="6.4"/>
	<rect x="252.8" y="149.4" class="st4" width="10.8" height="6.4"/>
	<rect x="252.8" y="139.7" class="st5" width="10.8" height="6.4"/>
	<rect x="252.8" y="130.2" class="st5" width="10.8" height="6.4"/>
	<rect x="252.8" y="120.7" class="st5" width="10.8" height="6.4"/>
	<rect x="252.8" y="111.2" class="st6" width="10.8" height="6.4"/>
	<rect x="233.4" y="264" class="st1" width="10.8" height="6.4"/>
	<rect x="233.4" y="254.4" class="st7" width="10.8" height="6.4"/>
	<rect x="233.4" y="244.9" class="st7" width="10.8" height="6.4"/>
	<rect x="233.4" y="235.4" class="st2" width="10.8" height="6.4"/>
	<rect x="233.4" y="225.9" class="st2" width="10.8" height="6.4"/>
	<rect x="233.4" y="216" class="st3" width="10.8" height="6.4"/>
	<rect x="233.4" y="206.5" class="st3" width="10.8" height="6.4"/>
	<rect x="233.4" y="197" class="st3" width="10.8" height="6.4"/>
	<rect x="233.4" y="187.5" class="st3" width="10.8" height="6.4"/>
	<rect x="233.4" y="177.9" class="st3" width="10.8" height="6.4"/>
	<rect x="233.4" y="168.4" class="st4" width="10.8" height="6.4"/>
	<rect x="233.4" y="158.9" class="st4" width="10.8" height="6.4"/>
	<rect x="233.4" y="149.4" class="st4" width="10.8" height="6.4"/>
	<rect x="233.4" y="139.7" class="st5" width="10.8" height="6.4"/>
	<rect x="214.2" y="273.7" class="st1" width="10.8" height="6.4"/>
	<rect x="214.2" y="264.2" class="st1" width="10.8" height="6.4"/>
	<rect x="214.2" y="254.6" class="st7" width="10.8" height="6.4"/>
	<rect x="214.2" y="245.2" class="st7" width="10.8" height="6.4"/>
	<rect x="214.2" y="235.6" class="st2" width="10.8" height="6.4"/>
	<rect x="214.2" y="226.1" class="st2" width="10.8" height="6.4"/>
	<rect x="214.2" y="216.2" class="st3" width="10.8" height="6.4"/>
	<rect x="214.2" y="206.7" class="st3" width="10.8" height="6.4"/>
	<rect x="214.2" y="197.2" class="st3" width="10.8" height="6.4"/>
	<rect x="214.2" y="187.7" class="st3" width="10.8" height="6.4"/>
	<rect x="214.2" y="178.1" class="st3" width="10.8" height="6.4"/>
	<rect x="214.2" y="168.7" class="st4" width="10.8" height="6.4"/>
	<rect x="195.4" y="245" class="st7" width="10.8" height="6.4"/>
	<rect x="195.4" y="235.5" class="st2" width="10.8" height="6.4"/>
	<rect x="195.4" y="226" class="st2" width="10.8" height="6.4"/>
	<rect x="195.4" y="216.1" class="st3" width="10.8" height="6.4"/>
	<rect x="195.4" y="206.6" class="st3" width="10.8" height="6.4"/>
	<rect x="195.4" y="197" class="st3" width="10.8" height="6.4"/>
	<rect x="195.4" y="187.6" class="st3" width="10.8" height="6.4"/>
	<rect x="195.4" y="178" class="st3" width="10.8" height="6.4"/>
	<rect x="195.4" y="168.5" class="st4" width="10.8" height="6.4"/>
	<rect x="176.2" y="273.5" class="st1" width="10.8" height="6.4"/>
	<rect x="176.2" y="264" class="st1" width="10.8" height="6.4"/>
	<rect x="176.2" y="254.4" class="st7" width="10.8" height="6.4"/>
	<rect x="176.2" y="244.9" class="st7" width="10.8" height="6.4"/>
	<rect x="176.2" y="235.4" class="st2" width="10.8" height="6.4"/>
	<rect x="176.2" y="225.9" class="st2" width="10.8" height="6.4"/>
	<rect x="176.2" y="216" class="st3" width="10.8" height="6.4"/>
	<rect x="176.2" y="206.5" class="st3" width="10.8" height="6.4"/>
	<rect x="176.2" y="197" class="st3" width="10.8" height="6.4"/>
	<rect x="176.2" y="187.5" class="st3" width="10.8" height="6.4"/>
	<rect x="156.8" y="254.2" class="st7" width="10.8" height="6.4"/>
	<rect x="156.8" y="244.7" class="st7" width="10.8" height="6.4"/>
	<rect x="156.8" y="235.2" class="st2" width="10.8" height="6.4"/>
	<rect x="156.8" y="225.7" class="st2" width="10.8" height="6.4"/>
	<rect x="156.8" y="215.8" class="st3" width="10.8" height="6.4"/>
	<rect x="156.8" y="206.3" class="st3" width="10.8" height="6.4"/>
	<rect x="156.8" y="196.7" class="st3" width="10.8" height="6.4"/>
	<rect x="156.8" y="187.3" class="st3" width="10.8" height="6.4"/>
	<rect x="136.9" y="235.2" class="st2" width="10.8" height="6.4"/>
	<rect x="136.9" y="215.8" class="st3" width="10.8" height="6.4"/>
	<rect x="136.9" y="206.3" class="st3" width="10.8" height="6.4"/>
	<rect x="136.9" y="196.8" class="st3" width="10.8" height="6.4"/>
	<rect x="136.9" y="187.3" class="st3" width="10.8" height="6.4"/>
	<rect x="136.9" y="177.7" class="st3" width="10.8" height="6.4"/>
	<rect x="136.9" y="168.3" class="st4" width="10.8" height="6.4"/>
	<rect x="136.9" y="158.7" class="st4" width="10.8" height="6.4"/>
	<rect x="136.9" y="149.2" class="st4" width="10.8" height="6.4"/>
	<rect x="117.7" y="254.2" class="st7" width="10.8" height="6.4"/>
	<rect x="117.7" y="244.7" class="st7" width="10.8" height="6.4"/>
	<rect x="117.7" y="235.1" class="st2" width="10.8" height="6.4"/>
	<rect x="117.7" y="225.7" class="st2" width="10.8" height="6.4"/>
	<rect x="117.7" y="215.7" class="st3" width="10.8" height="6.4"/>
	<rect x="117.7" y="206.3" class="st3" width="10.8" height="6.4"/>
	<rect x="117.7" y="196.7" class="st3" width="10.8" height="6.4"/>
	<rect x="117.7" y="187.2" class="st3" width="10.8" height="6.4"/>
	<rect x="117.7" y="177.6" class="st3" width="10.8" height="6.4"/>
	<rect x="117.7" y="168.2" class="st4" width="10.8" height="6.4"/>
	<rect x="117.7" y="158.6" class="st4" width="10.8" height="6.4"/>
	<rect x="117.7" y="149.1" class="st4" width="10.8" height="6.4"/>
	<rect x="98.9" y="225.8" class="st2" width="10.8" height="6.4"/>
	<rect x="98.9" y="206.4" class="st3" width="10.8" height="6.4"/>
	<rect x="98.9" y="196.9" class="st3" width="10.8" height="6.4"/>
	<rect x="98.9" y="187.4" class="st3" width="10.8" height="6.4"/>
	<rect x="98.9" y="177.8" class="st3" width="10.8" height="6.4"/>
	<rect x="98.9" y="168.3" class="st4" width="10.8" height="6.4"/>
	<rect x="98.9" y="158.8" class="st4" width="10.8" height="6.4"/>
	<rect x="98.9" y="149.3" class="st4" width="10.8" height="6.4"/>
	<rect x="98.9" y="139.6" class="st5" width="10.8" height="6.4"/>
	<rect x="98.9" y="130.1" class="st5" width="10.8" height="6.4"/>
	<rect x="79.7" y="206.3" class="st3" width="10.8" height="6.4"/>
	<rect x="79.7" y="187.3" class="st3" width="10.8" height="6.4"/>
	<rect x="79.7" y="177.7" class="st3" width="10.8" height="6.4"/>
	<rect x="79.7" y="168.2" class="st4" width="10.8" height="6.4"/>
	<rect x="79.7" y="158.7" class="st4" width="10.8" height="6.4"/>
	<rect x="79.7" y="149.2" class="st4" width="10.8" height="6.4"/>
	<rect x="79.7" y="139.5" class="st5" width="10.8" height="6.4"/>
	<rect x="79.7" y="130" class="st5" width="10.8" height="6.4"/>
	<rect x="79.7" y="120.5" class="st5" width="10.8" height="6.4"/>
	<rect x="79.7" y="111" class="st6" width="10.8" height="6.4"/>
	<rect x="60.4" y="215.8" class="st3" width="10.8" height="6.4"/>
	<rect x="60.4" y="206.3" class="st3" width="10.8" height="6.4"/>
	<rect x="60.4" y="196.8" class="st3" width="10.8" height="6.4"/>
	<rect x="60.4" y="187.3" class="st3" width="10.8" height="6.4"/>
	<rect x="60.4" y="177.7" class="st3" width="10.8" height="6.4"/>
	<rect x="60.4" y="168.3" class="st4" width="10.8" height="6.4"/>
	<rect x="60.4" y="158.7" class="st4" width="10.8" height="6.4"/>
	<rect x="60.4" y="149.2" class="st4" width="10.8" height="6.4"/>
	<rect x="60.4" y="139.5" class="st5" width="10.8" height="6.4"/>
	<rect x="60.4" y="130" class="st5" width="10.8" height="6.4"/>
	<rect x="60.4" y="120.5" class="st5" width="10.8" height="6.4"/>
	<rect x="60.4" y="111" class="st6" width="10.8" height="6.4"/>
	<rect x="60.4" y="101.4" class="st6" width="10.8" height="6.4"/>
	<rect x="41.2" y="264" class="st1" width="10.8" height="6.4"/>
	<rect x="41.2" y="245" class="st7" width="10.8" height="6.4"/>
	<rect x="41.2" y="235.4" class="st2" width="10.8" height="6.4"/>
	<rect x="41.2" y="226" class="st2" width="10.8" height="6.4"/>
	<rect x="41.2" y="216.1" class="st3" width="10.8" height="6.4"/>
	<rect x="41.2" y="206.6" class="st3" width="10.8" height="6.4"/>
	<rect x="41.2" y="197" class="st3" width="10.8" height="6.4"/>
	<rect x="41.2" y="187.5" class="st3" width="10.8" height="6.4"/>
	<rect x="41.2" y="178" class="st3" width="10.8" height="6.4"/>
	<rect x="41.2" y="168.5" class="st4" width="10.8" height="6.4"/>
	<rect x="41.2" y="158.9" class="st4" width="10.8" height="6.4"/>
	<rect x="41.2" y="149.5" class="st4" width="10.8" height="6.4"/>
	<rect x="41.2" y="139.8" class="st5" width="10.8" height="6.4"/>
	<rect x="41.2" y="130.3" class="st5" width="10.8" height="6.4"/>
	<rect x="41.2" y="120.7" class="st5" width="10.8" height="6.4"/>
	<rect x="41.2" y="111.2" class="st6" width="10.8" height="6.4"/>
	<rect x="41.2" y="101.7" class="st6" width="10.8" height="6.4"/>
	<rect x="41.2" y="92.2" class="st6" width="10.8" height="6.4"/>
	<rect x="22.3" y="273.4" class="st1" width="10.8" height="6.4"/>
	<rect x="22.3" y="263.9" class="st1" width="10.8" height="6.4"/>
	<rect x="22.3" y="254.3" class="st7" width="10.8" height="6.4"/>
	<rect x="22.3" y="244.8" class="st7" width="10.8" height="6.4"/>
	<rect x="22.3" y="235.3" class="st2" width="10.8" height="6.4"/>
	<rect x="22.3" y="225.8" class="st2" width="10.8" height="6.4"/>
	<rect x="22.3" y="215.9" class="st3" width="10.8" height="6.4"/>
	<rect x="22.3" y="206.4" class="st3" width="10.8" height="6.4"/>
	<rect x="22.3" y="196.9" class="st3" width="10.8" height="6.4"/>
	<rect x="22.3" y="187.4" class="st3" width="10.8" height="6.4"/>
	<rect x="22.3" y="177.8" class="st3" width="10.8" height="6.4"/>
	<rect x="22.3" y="168.3" class="st4" width="10.8" height="6.4"/>
	<rect x="22.3" y="158.8" class="st4" width="10.8" height="6.4"/>
	<rect x="22.3" y="149.3" class="st4" width="10.8" height="6.4"/>
	<rect x="22.3" y="139.6" class="st5" width="10.8" height="6.4"/>
	<rect x="22.3" y="130.1" class="st5" width="10.8" height="6.4"/>
	<rect x="22.3" y="120.6" class="st5" width="10.8" height="6.4"/>
	<rect x="22.3" y="111.1" class="st6" width="10.8" height="6.4"/>
	<rect x="22.3" y="101.5" class="st6" width="10.8" height="6.4"/>
	<rect x="22.3" y="92" class="st6" width="10.8" height="6.4"/>
	<rect x="3.1" y="235.2" class="st2" width="10.8" height="6.4"/>
	<rect x="3.1" y="225.7" class="st2" width="10.8" height="6.4"/>
	<rect x="3.1" y="206.3" class="st3" width="10.8" height="6.4"/>
	<rect x="3.1" y="196.8" class="st3" width="10.8" height="6.4"/>
	<rect x="3.1" y="187.3" class="st3" width="10.8" height="6.4"/>
	<rect x="3.1" y="177.7" class="st3" width="10.8" height="6.4"/>
	<rect x="3.1" y="168.2" class="st4" width="10.8" height="6.4"/>
	<rect x="3.1" y="158.7" class="st4" width="10.8" height="6.4"/>
	<rect x="3.1" y="149.2" class="st4" width="10.8" height="6.4"/>
	<rect x="3.1" y="139.5" class="st5" width="10.8" height="6.4"/>
	<rect x="3.1" y="130" class="st5" width="10.8" height="6.4"/>
	<rect x="3.1" y="120.5" class="st5" width="10.8" height="6.4"/>
	<rect x="3.1" y="111" class="st6" width="10.8" height="6.4"/>
	<rect x="3.1" y="101.4" class="st6" width="10.8" height="6.4"/>
</g>
<g id="Layer_3">
	<rect x="238.3" y="64.6" class="st8" width="347.9" height="207"/>
	<rect x="406.8" y="80.1" class="st9" width="162.9" height="124.1"/>
	<rect x="255.7" y="80.1" class="st9" width="136.6" height="124.1"/>
	<path class="st10" d="M522.8,113.3c-3.3-4.9-7.8-8.8-13-11.5c0.3,4.2-1.3,8.4-4.5,11.1c8.4,4.9,13,14.3,11.7,23.9
		c0.7-0.3,1.4-0.5,2.1-0.7l1.4-0.1c0.6-0.8,1.1-1.6,1.6-2.4c0.3-0.7,0.7-1.4,1.2-2.1l0,0l0.4-0.8c1.1-2.2,3.2-0.6,5.1-1.5
		C528.2,123.5,526.2,118,522.8,113.3z"/>
	<path class="st11" d="M488.7,164.7h0.3c-0.1-0.7-0.3-1.5-0.5-2.2l-0.3-0.9v-0.1l-0.8-2.6c-0.2-0.7-0.3-1.5-0.3-2.3
		c-4.5-1.2-8.6-3.7-11.7-7.2c-2.1,2.2-4.4,4.1-6.9,5.6c-0.9,0.6-1.8,1-2.8,1.4c4.3,5.2,12,9.4,18.1,11.5
		C485.6,166.2,486.2,164.7,488.7,164.7z"/>
	<path class="st0" d="M476.7,150.8c-9.6-9.1-10-24.2-0.9-33.8c8.4-8.9,22.3-10,32-2.5l5.3-10.9c-12.6-8.2-26.1-8-40,0.3
		c-16.3,11.2-20.5,33.4-9.3,49.8c0.9,1.3,1.9,2.6,3,3.8L476.7,150.8z"/>
	<path class="st12" d="M528.7,129.2l-12.1-0.2c2.4,13-6.1,25.4-19.1,27.9c-3.5,0.7-7.2,0.5-10.7-0.4l-3.1,11.5
		c8.4,2,14,1.8,20.6-0.6c4.3-1.5,8.3-3.8,11.8-6.8C525.8,152.4,530.1,141.9,528.7,129.2z"/>
	<rect x="543" y="90.6" class="st13" width="14.9" height="1.6"/>
	<rect x="543" y="93.9" class="st13" width="14.9" height="1.6"/>
	<rect x="543" y="97.1" class="st13" width="14.9" height="1.6"/>
	<rect x="543" y="100.4" class="st13" width="14.9" height="1.6"/>
	<rect x="441.6" y="182.4" class="st13" width="32.2" height="1.6"/>
	<rect x="441.6" y="185.7" class="st13" width="32.2" height="1.6"/>
	<rect x="441.6" y="189" class="st13" width="32.2" height="1.6"/>
	<rect x="441.6" y="192.2" class="st13" width="32.2" height="1.6"/>
	<rect x="526" y="180.5" class="st13" width="17.1" height="1.6"/>
	<rect x="526" y="183.8" class="st13" width="17.1" height="1.6"/>
	<rect x="526" y="187.1" class="st13" width="17.1" height="1.6"/>
	<rect x="526" y="190.3" class="st13" width="17.1" height="1.6"/>
	<rect x="425.5" y="97.1" class="st13" width="17.1" height="1.6"/>
	<rect x="425.5" y="100.4" class="st13" width="17.1" height="1.6"/>
	<rect x="425.5" y="103.7" class="st13" width="17.1" height="1.6"/>
	<rect x="425.5" y="106.9" class="st13" width="17.1" height="1.6"/>
	
		<rect x="523.7" y="104.5" transform="matrix(0.7397 -0.6729 0.6729 0.7397 67.8518 386.0183)" class="st13" width="18.6" height="1.6"/>
	
		<rect x="456.5" y="171.9" transform="matrix(0.6252 -0.7804 0.7804 0.6252 39.779 428.2375)" class="st13" width="18.6" height="1.6"/>
	
		<rect x="453.1" y="97.2" transform="matrix(0.573 -0.8196 0.8196 0.573 106.5259 417.5001)" class="st13" width="1.6" height="18.6"/>
	
		<rect x="522.4" y="161.6" transform="matrix(0.7232 -0.6906 0.6906 0.7232 26.827 408.6037)" class="st13" width="1.6" height="18.6"/>
	<rect x="428.1" y="138.2" class="st0" width="7" height="7"/>
	<rect x="438.7" y="140.1" class="st9" width="12.9" height="3.5"/>
	<rect x="428.1" y="148.6" class="st10" width="7" height="7"/>
	<rect x="438.7" y="150.5" class="st9" width="12.9" height="3.5"/>
	<rect x="428.1" y="159.1" class="st12" width="7" height="7"/>
	<rect x="438.7" y="160.9" class="st9" width="12.9" height="3.5"/>
	<rect x="406.8" y="217" class="st9" width="162.9" height="41.1"/>
	<rect x="272" y="108.1" class="st14" width="28.4" height="2"/>
	<rect x="272" y="112.2" class="st14" width="28.4" height="2"/>
	<rect x="272" y="116.2" class="st14" width="28.4" height="2"/>
	<rect x="272" y="120.3" class="st14" width="28.4" height="2"/>
	<path class="st13" d="M274.6,143.2c-0.9-0.5-2.1-0.2-2.6,0.7c-0.5,0.9-0.2,2.1,0.7,2.6c0.9,0.5,2,0.3,2.6-0.6h25.4v-2.4H275
		C274.8,143.4,274.7,143.3,274.6,143.2z"/>
	<path class="st13" d="M274.6,136.6c-0.9-0.5-2.1-0.2-2.6,0.7c-0.5,0.9-0.2,2.1,0.7,2.6c0.8,0.5,1.9,0.3,2.5-0.4h25.5V137h-25.5
		C274.9,136.8,274.8,136.7,274.6,136.6z"/>
	<path class="st13" d="M275.1,130.7c-0.7-0.8-1.8-1-2.7-0.3s-1,1.8-0.3,2.7c0.7,0.8,1.8,1,2.7,0.3c0.1-0.1,0.2-0.2,0.3-0.3h25.5
		v-2.4H275.1z"/>
	<rect x="271.1" y="90.9" class="st10" width="30.3" height="11.1"/>
	<rect x="321.7" y="123.4" class="st15" width="3.3" height="22.8"/>
	<rect x="338.2" y="114.5" class="st11" width="3.2" height="31.7"/>
	<rect x="327.1" y="110" class="st0" width="3.5" height="36.1"/>
	<rect x="343.7" y="89.5" class="st12" width="3.2" height="56.6"/>
	<rect x="332.8" y="99.6" class="st16" width="3.4" height="46.5"/>
	<rect x="350.2" y="138.1" class="st15" width="3.3" height="8"/>
	<rect x="366.7" y="132.7" class="st11" width="3.2" height="13.5"/>
	<rect x="355.5" y="121.2" class="st0" width="3.5" height="24.9"/>
	<rect x="372.1" y="129.9" class="st12" width="3.2" height="16.2"/>
	<rect x="361.2" y="106.5" class="st16" width="3.4" height="39.6"/>
	<rect x="271.7" y="161.9" class="st0" width="7" height="7"/>
	<rect x="282.3" y="163.7" class="st13" width="47.2" height="3.5"/>
	<rect x="271.7" y="172.3" class="st10" width="7" height="7"/>
	<rect x="282.3" y="174.2" class="st13" width="27" height="3.5"/>
	<rect x="271.7" y="182.7" class="st12" width="7" height="7"/>
	<rect x="282.3" y="184.6" class="st13" width="34.7" height="3.5"/>
	<rect x="418.5" y="223.3" class="st0" width="7" height="7"/>
	<rect x="429.2" y="225.2" class="st13" width="47.2" height="3.5"/>
	<rect x="418.5" y="233.8" class="st12" width="7" height="7"/>
	<rect x="429.2" y="235.6" class="st13" width="27" height="3.5"/>
	<rect x="418.5" y="244.2" class="st10" width="7" height="7"/>
	<rect x="429.2" y="246.1" class="st13" width="34.7" height="3.5"/>
	<polygon class="st13" points="361.5,169.5 364.1,157.7 352.2,160.1 354.7,162.7 343.2,174.1 347.5,178.4 359,167 	"/>
	<rect x="347.1" y="182.5" class="st14" width="6.6" height="11.4"/>
	<rect x="356.5" y="176.3" class="st16" width="6.6" height="17.6"/>
	<rect x="365.8" y="168" class="st12" width="7.1" height="25.9"/>
	<rect x="257.6" y="216.2" class="st9" width="102.5" height="41.1"/>
	<polygon class="st11" points="289.2,239.1 296.3,228.7 304.2,236.5 319.7,221.3 337.2,244.5 306.3,248.5 287.3,244 	"/>
	<polygon class="st12" points="263.7,249.2 275.3,233.5 285.2,245.4 287.3,246.3 296.7,243.3 306.3,227.6 319.7,240.8 339.5,218.6 
		349,249.2 	"/>
	<polygon class="st10" points="263.7,249.2 271.5,241.3 279.8,244.8 288.5,236.4 296.7,243.3 311,228.3 327.4,243.3 348.9,228.3 
		349,249.2 	"/>
	<rect x="487.3" y="235.2" class="st13" width="28.4" height="1.6"/>
	<rect x="487.3" y="238.4" class="st13" width="28.4" height="1.6"/>
	<rect x="487.3" y="241.7" class="st13" width="28.4" height="1.6"/>
	<rect x="487.3" y="245" class="st13" width="28.4" height="1.6"/>
	<rect x="487.3" y="227" class="st13" width="28.4" height="5.8"/>
	<rect x="527" y="235.2" class="st16" width="28.4" height="1.6"/>
	<rect x="527" y="238.4" class="st16" width="28.4" height="1.6"/>
	<rect x="527" y="241.7" class="st16" width="28.4" height="1.6"/>
	<rect x="527" y="245" class="st16" width="28.4" height="1.6"/>
	<rect x="527" y="227" class="st16" width="28.4" height="5.8"/>
	<rect x="238.3" y="43.6" class="st10" width="347.9" height="21"/>
	<circle class="st9" cx="569.6" cy="53.9" r="4.8"/>
	<circle class="st9" cx="554.8" cy="53.9" r="4.8"/>
	<circle class="st9" cx="540.3" cy="53.9" r="4.8"/>
	<polygon class="st16" points="606.9,276.5 559.2,127.9 561.9,127.9 609.7,276.5 	"/>
	<polygon class="st16" points="582.2,276.5 534.5,127.9 537.2,127.9 585,276.5 	"/>
	<polygon class="st16" points="574.3,166.5 574.3,168.7 548.7,168.7 548.2,166.5 	"/>
	<polygon class="st16" points="569,152.1 569,154.4 543.4,154.3 542.9,152.1 	"/>
	<polygon class="st16" points="564.6,137.7 564.6,140 539,139.9 538.6,137.7 	"/>
	<polygon class="st16" points="578.9,181.1 578.9,183.3 553.3,183.3 552.9,181.1 	"/>
	<polygon class="st16" points="583.3,195.7 583.3,197.9 557.7,197.9 557.3,195.7 	"/>
	<polygon class="st16" points="587.8,210.8 588.9,213 563.3,213 562.8,210.8 	"/>
	<polygon class="st16" points="592.6,226 593.7,228.2 568.1,228.2 567.6,226 	"/>
	<polygon class="st16" points="597.1,240.8 598.2,243 572.6,243 572.1,240.8 	"/>
	<polygon class="st16" points="600.8,255.9 601.9,258.1 576.3,258.1 575.8,255.9 	"/>
	<path class="st16" d="M595.9,176.9l-1.9,5c-0.3,0.7-0.1,1.5,0.5,2c0.3,0.2,0.6,0.3,1,0.5c0.4-0.1,2.5-6.9,2.5-6.9l0,0
		C597.6,176.8,596.7,176.6,595.9,176.9z"/>
	<polygon class="st14" points="595.6,184.3 598.1,177.5 598.4,177.7 595.9,184.5 	"/>
	<polygon class="st9" points="595.2,178.9 595,179.3 595.9,179.5 596.1,179.1 	"/>
	<polygon class="st9" points="594.8,179.8 594.6,180.3 595.5,180.5 595.7,180 	"/>
	<path class="st17" d="M593.8,175.7l2.1,1.2l0,0c0.1,0.5-0.1,1-0.5,1.4h-0.1l-2.3-0.6L593.8,175.7z"/>
	<path class="st18" d="M577,143.9c1.4,1.8,2.4,3.9,2.6,6.2c0.4,2.6-0.6,6.8-0.7,10.1c-0.1,2.9,1.3,5.6,3.6,7.2l11.3,8.2l-0.8,2
		c0,0-15.5-2.3-19.6-9.3c-4.1-6.9-5-22.6-5-22.6L577,143.9z"/>
	<path class="st17" d="M586,135.4l5.8,13c1.2,0.1,2.4,0.6,3.4,1.3c0.5,0.6,0.6,1.5,0.4,2.2c-0.1,0.4-0.5,0.7-1,0.6
		c-0.1,0-0.2-0.1-0.3-0.1c-0.6-0.6-1.3-1-2-1.3c-0.8-0.1-1.5-0.6-1.9-1.3l-8.3-13.1L586,135.4z"/>
	<path class="st17" d="M556.7,109.3l-3-2.5l2.3-12.6l3.6-1.8c-0.3-0.4-0.8-0.6-1.3-0.4c-0.5,0.2-1.1,0.2-1.6,0.1
		c0,0-0.7-0.8,0.6-1.4c0.7-0.5,1.2,0,3.3-0.1c0-0.3-2.7-1.1-2.7-1.1c-0.9-0.3-3,1.4-3,1.4c-0.1,0.2-0.2,0.4-0.3,0.7l-0.3,2.3
		c0,0-4.6,12.7-4.6,14c0,1.3,2.6,3.2,2.6,3.2L556.7,109.3z"/>
	<path class="st10" d="M572.6,145.3c0,0,1.8,2.2,0.7,7.2c-0.7,3.2-3.7,7.2-5.7,10.1c-1.3,2.1-1.7,4.6-1,6.9c1.7,9.2-1,20.5-1,20.5
		h-2.1c0,0-3.2-16.5-4.2-28.1c-0.5-6.3,0.8-12.7,3.7-18.3L572.6,145.3z"/>
	
		<rect x="553.8" y="90.5" transform="matrix(0.9894 -0.1452 0.1452 0.9894 -7.3694 81.8926)" class="st12" width="6.8" height="1.8"/>
	
		<rect x="553.4" y="91.1" transform="matrix(0.9894 -0.1452 0.1452 0.9894 -7.4855 81.3914)" class="st9" width="0.6" height="1.8"/>
	<path class="st14" d="M553.8,92.9c-0.5,0.1-0.9,0-1-0.8c-0.1-0.8,0.3-1,0.8-1L553.8,92.9z"/>
	<polygon class="st9" points="560.8,91.8 562.1,91.1 562,90.4 560.5,90.1 	"/>
	<polygon class="st15" points="562.1,91.1 562.6,90.7 562,90.4 	"/>
	<rect x="554.1" y="91.7" transform="matrix(0.9894 -0.145 0.145 0.9894 -7.4361 81.8242)" class="st19" width="6.6" height="0.4"/>
	<rect x="554" y="90.8" transform="matrix(0.9894 -0.145 0.145 0.9894 -7.312 81.797)" class="st19" width="6.6" height="0.4"/>
	<path class="st0" d="M578,119.8c3.8,2.8,8.4,16.4,8.4,16.4l-3.4,1.9l-5.5-7.5c-0.3,5.2,0,10.3,0.8,15.4c-0.6,2.5-3.5,2.2-8.1,1.4
		c-2.7-0.5-5.3-1.5-7.7-2.9c0,0-0.2-12.1-0.8-18.5c-0.6-6.4,0.6-7.1-1-6.9c-3.6-2-9.5-8.7-9.5-8.7l5.5-1.1l11.8,6.9
		C571.8,117.1,574.9,118.3,578,119.8z"/>
	<path class="st17" d="M571.3,103.7l-2.9,2.8c-1.2,1.2-1.7,2.9-1.4,4.6l0.3,1.5L571.3,103.7z"/>
	<path class="st14" d="M574.7,102.6c6.9,0,4,13.3,4,13.3s-1.3,8.6-4,12.1c-2.4,3-7.1,2.1-9.3,0.7c-1.1-0.7-2.3-1.2-3.6-1.3
		c-1.9-0.2-4.1-1.1-4.1-4.5c0-3.2,3.8-5.7,6.3-7.5c1.6-1.2,2.8-2.9,3.3-4.8C568.1,107.3,570.1,102.6,574.7,102.6z"/>
	<path class="st16" d="M565.3,192.2h-5.4c-0.7,0.1-1.5,0.4-1.6,1.3c-0.1,0.4-0.1,0.7-0.1,1.1c0.2,0.3,7.3,0,7.3,0l0,0
		C566,193.9,565.9,192.9,565.3,192.2z"/>
	<polygon class="st15" points="558.2,194.5 565.5,194.5 565.4,194.9 558.1,194.9 	"/>
	<polygon class="st9" points="563.1,192.2 562.7,192.2 562.8,193.1 563.3,193.1 	"/>
	<polygon class="st9" points="562.1,192.2 561.6,192.2 561.8,193.1 562.2,193.1 	"/>
	<path class="st17" d="M565.6,189.9l-0.4,2.4l0,0c-0.4,0.3-1,0.3-1.4,0h-0.1l-0.3-2.4H565.6z"/>
	<path class="st17" d="M558.3,91.8c0.5-0.2,1,0,1.3,0.4l-2.4,1.3h-0.1c-0.5-0.2-1-0.4-1.6-0.6C556.4,92.5,557.3,92.1,558.3,91.8z"/>
	<path class="st17" d="M310,79.8l0.4,2.5l0,0c-0.8,0.5-1.8,0.6-2.6,0.1l-0.2-0.1l-0.6-2.5H310z"/>
	<path class="st12" d="M290,22.2c2.2,7.3,9.6,18.5,9.6,18.5l-5.9-2.4l-4.1-9.6C289.7,28.7,287.8,14.9,290,22.2z"/>
	<path class="st14" d="M306,51.5l4.6,28.5h-4.1c0,0-9.2-25.7-10.2-33.2c0-4.3,9.3,0,9.3,0L306,51.5z"/>
	<polygon class="st20" points="290.7,10.6 289.1,14.6 285.8,12.2 288,7.5 	"/>
	<path class="st17" d="M291.9,11.3c0.4,0.1,0.8,0.1,1.3,0c1.9-1.8,1.5-8,1.5-8l-2.1-1.5l-3.4,1.3l-1,3.8c-0.3,1.1,0,2.2,0.8,3l0,0
		C289.7,10.6,290.8,11.1,291.9,11.3z"/>
	<path class="st14" d="M289.7,4.3c0.3-0.6,1-0.9,1.7-0.7c0.5,0.2,1.1,0.4,1.6,0.5c1.3,0.3,3.8,0.3,4.2-1.8c0.5-2-2.2-1.8-2.2-1.8
		l-3.5,0.2c-1,0.1-2.1-0.1-3-0.6c-0.7-0.2-1.5,0.2-1.8,0.9c-0.2,1.5-0.1,3,0.4,4.3c0.2,0.7,0.5,1.4,1,2l0,0L289.7,4.3z"/>
	<path class="st17" d="M287.7,5.1c0.5-0.2,1,0,1.3,0.4c0.3,0.4,0.3,0.9,0,1.1c-0.5,0.2-1,0-1.3-0.4C287.4,5.9,287.4,5.4,287.7,5.1z"
		/>
	<path class="st14" d="M310.5,82c0,0,0,2.7,5.3,4.2c1.1,0.3,0.7,0.7,0.9,1.1h-6.1l-2.4-2.7l-0.7,0.6l-1.7-1.7c0,0,0.3-2.5,1.6-2.5
		C308.5,81.5,310.5,82,310.5,82z"/>
	<path class="st17" d="M295.4,79l-1,2.3l0,0c-0.9,0.3-1.9,0-2.5-0.8l-0.1-0.1l0.8-2.4L295.4,79z"/>
	<path class="st0" d="M289.9,13.5c0,0,0.4-0.7-3.3-2.6c-5.7,5.7-7.5,27.4-7.5,27.4h14.8C294.3,25.9,289.9,13.5,289.9,13.5z"/>
	<path class="st17" d="M304.5,37.7c0.1-0.3-0.1-0.6-0.3-0.7l-2.4-1.4c-0.6-0.3-1.3-0.5-2-0.3l-2.6,0.1l-0.3,0.4l-0.5,2.3l0.8-0.2
		h1.7c0,0,3.1,2.9,4.7,0.4c0.1,2.7,0.9,2.5,0.9,2.5L304.5,37.7z"/>
	<path class="st15" d="M279,38.3l-0.2,1.8v0.1c-0.3,3.5,1.9,6.8,5.3,7.7c5,1.5,10.1,2.4,15.3,2.7c-5.6,7.2-7.1,27.3-7.1,27.3
		l3.6,1.3l13.9-33c0.8-1.9-0.1-4-1.9-4.8c-0.2-0.1-0.5-0.2-0.7-0.2l-13.3-2.8L279,38.3z"/>
	<path class="st0" d="M288.2,20.6c-1.7,1.5-3.1,3.3-4.4,5.1c-0.5,0.7-0.4,1.7,0.2,2.3c3.1,3.6,14.1,7,14.1,7l-0.7,4
		c0,0-15.6-3.1-21.1-8.6c-5.5-5.6,9-17.6,9-17.6"/>
	<path class="st21" d="M284,25.8c-0.4,0.6-0.3,1.5,0.2,2c1.4,1.6,5.2,3.4,8.4,4.6c0,0.2,0,0.2,0,0.5c-3.4-1.3-7.2-3-8.8-4.8
		c-0.6-0.7-0.7-1.7-0.2-2.5c1.3-1.9,2.8-3.6,4.4-5.2l0.3,0.3C286.8,22.3,285.3,24,284,25.8z"/>
	<path class="st21" d="M279.5,32.6c5.7,2.8,11.7,4.9,17.9,6.2c0,0.1,0,0.3-0.1,0.4c-6.2-1.3-12.2-3.4-17.9-6.1
		C279.5,32.9,279.5,32.8,279.5,32.6z"/>
	<polygon class="st16" points="310.3,42.5 315,26 314.1,25.8 309.7,41.5 296.4,39.2 296.3,40.1 	"/>
	<path class="st14" d="M294.6,80.8c0,0-0.2,2.7,5.1,4.3c1.1,0.3,0.7,0.7,0.9,1.1h-6.1l-2.4-2.7l-0.7,0.6l-1.7-1.7
		c0,0,0.8-2.5,2.1-2.5C292.9,80.3,294.6,80.8,294.6,80.8z"/>
	<path class="st22" d="M391.4,276h7.5c1,0.1,2.1,0.4,2.3,1.3c0.1,0.4,0.1,0.8,0.1,1.2c-0.3,0.3-10.3,0-10.3,0l0,0
		c-0.6-0.7-0.5-1.7,0.1-2.3C391.2,276.1,391.3,276.1,391.4,276z"/>
	<polygon class="st14" points="401.4,278.4 391.1,278.4 391.2,278.8 401.4,278.8 	"/>
	<polygon class="st9" points="394.4,276 395.1,276 394.8,276.9 394.2,276.9 	"/>
	<polygon class="st9" points="395.8,276 396.5,276 396.3,276.9 395.6,276.9 	"/>
	<path class="st17" d="M390.9,273.5l0.5,2.5l0,0c0.6,0.3,1.4,0.3,2,0h0.1l0.4-2.5H390.9z"/>
	<path class="st14" d="M373.7,276h7.5c1,0.1,2.1,0.4,2.3,1.3c0.1,0.4,0.1,0.8,0.1,1.2c-0.3,0.3-10.3,0-10.3,0l0,0
		c-0.6-0.7-0.5-1.7,0.1-2.3C373.5,276.1,373.6,276.1,373.7,276z"/>
	<polygon class="st14" points="383.7,278.4 373.4,278.4 373.5,278.8 383.7,278.8 	"/>
	<polygon class="st9" points="376.7,276 377.3,276 377.1,276.9 376.5,276.9 	"/>
	<polygon class="st9" points="378.1,276 378.8,276 378.6,276.9 377.9,276.9 	"/>
	<path class="st17" d="M374,273.5l-0.3,2.5l0,0c0.6,0.3,1.4,0.3,2,0h0.1l1.3-2.5H374z"/>
	<path class="st17" d="M385.3,188.6l-6.3,4.1l1.9,4.9l0.1,0.2h0.6c1.6,0.1,3.1,1,4,2.4c1-0.1,2-0.3,2.9-0.8c0.6-0.2,1-0.6,1.4-1.1
		C390.6,194.9,385.3,188.6,385.3,188.6z"/>
	<path class="st17" d="M393.2,189.9c0,0,0.8,7.2-0.8,11.8c0.7,0.6,3.3,3.4,4.2-0.2s-0.9-12.9-0.9-12.9L393.2,189.9z"/>
	<polygon class="st14" points="389.5,189.4 388,190.3 388.5,191.4 390.1,190.7 	"/>
	
		<ellipse transform="matrix(0.9157 -0.4019 0.4019 0.9157 -43.9306 172.2055)" class="st14" cx="388.4" cy="190.8" rx="0.3" ry="0.7"/>
	<path class="st15" d="M407.2,184.1L407.2,184.1c-0.4-0.9-0.9-1.7-1.4-2.5c-0.5-0.7-1-1.4-1.4-2.2l-15.2,9.9l1,1.8l17-6.3
		C407.2,184.6,407.2,184.3,407.2,184.1z"/>
	<polygon class="st20" points="383.9,200.2 383.4,203.6 388.2,203.6 388.5,199.5 	"/>
	<path class="st17" d="M396.4,208.7c0,0,5.7-1.8,7.5-4.2c1.8-2.4-1.3-15.8-1.3-15.8l0.4-2.4c0.2-1.2-0.6-2.4-1.8-2.6
		c-0.1,0-0.2,0-0.3,0h-1.5c-0.5,0-0.9,0.4-0.9,0.8c0,0.1,0,0.3,0.1,0.4l2,4.5c0,0,1.5,10.1-0.6,10.9c-1.7,0.6-3.5,0.9-5.4,1.1
		L396.4,208.7z"/>
	<path class="st14" d="M385.7,200.2l-1.5-3.3l1-0.6c0.7-0.4,1-1.3,0.7-2.1l-1-3.1c0,0,3-0.4,2.9-3.1c0-1.4-2-1.4-2-1.4
		c-0.5,0.9-1.4,1.4-2.4,1.4c-1.9,0-3.6,1-4.4,2.7c-1,1.7-0.5,4.4,0.3,6.3c0.9,1.7,2.7,2.9,4.6,3.1L385.7,200.2z"/>
	<path class="st23" d="M379.9,227.6c0.3,4.8,0.8,9.7,1.7,14.4c0.4,2.2,0.3,4.5-0.4,6.6c-3.4,10.1-8.2,25.3-8.2,25.3h4.2
		c0,0,9.6-18,12.1-26.9c2.5-8.9,2.9-11.7,2.9-11.7l-2.9-7.7H379.9z"/>
	<path class="st17" d="M383.4,195.5c-0.1,0.6,0.2,1.2,0.8,1.5c0.6,0.3,1.3,0.2,1.4-0.3c0.1-0.6-0.2-1.2-0.8-1.5
		C384.2,194.8,383.6,195,383.4,195.5z"/>
	<path class="st12" d="M393.7,227.6h-13.8v-17.8c0-3.9,2.9-7.2,6.8-7.5l9.6-1.2c0,0,1.1,1.7,4.3,5.8c-2.6,1.5-5.3,2.7-8.2,3.4
		L393.7,227.6z"/>
	<path class="st16" d="M379.9,227.6c0,0,1.9,7.1,9.2,15c1.9,1.9,2.9,4.5,2.7,7.2l-1.5,24.2h4.3c0,0,5.2-20.1,4.1-30
		c-0.6-5.7-2.3-11.3-4.9-16.4H379.9z"/>
	<ellipse transform="matrix(0.9008 -0.4343 0.4343 0.9008 -38.7627 194.2806)" class="st13" cx="405.8" cy="182" rx="1" ry="3.1"/>
	<path class="st17" d="M392.6,187h0.1c0.5,0.2,1,0.2,1.4,0.1h0.1c0.8-0.2,1.4-0.9,1.6-1.7l0,0c0.1-0.3-0.1-0.5-0.3-0.6
		c-0.1,0-0.2,0-0.2,0l-1,0.2c-0.4,0.1-0.7,0.3-0.9,0.6L392.6,187z"/>
	<polygon class="st17" points="501.5,200.4 497,208.7 501.9,208.5 502.3,200.1 	"/>
	<polygon class="st9" points="508.4,196.7 504.3,196.6 502.6,223.2 510,223.2 	"/>
	<path class="st15" d="M516,274.6c0.6,0.4,0.9,1.1,0.8,1.8c-0.2,1-0.5,3.4-0.5,3.4h-1v-2.2c0-0.2-2.2,2.2-2.6,2.2h-5.5
		c0,0-0.4-1.5,2.9-2C512.3,277.4,514.4,276.3,516,274.6z"/>
	<path class="st17" d="M513.6,273.6l-0.8,1.9c-0.2,0.5-0.5,1-1,1.3c-0.8,0.5-1.7,0.9-2.6,1.2c1.5,1.3,3.9,0,5.3-1
		c0.7-0.5,1.1-1.2,1.3-1.9l0.3-1.5L513.6,273.6z"/>
	<path class="st15" d="M505.5,274.6c0.6,0.4,0.9,1.1,0.8,1.8c-0.2,1-0.5,3.4-0.5,3.4h-1.1v-2.2c0-0.2-2.2,2.2-2.6,2.2h-5.5
		c0,0-0.4-1.5,2.9-2C501.8,277.4,503.8,276.3,505.5,274.6z"/>
	<path class="st17" d="M503.1,273.6l-0.8,1.9c-0.2,0.5-0.5,1-1,1.3c-0.8,0.5-1.7,0.9-2.6,1.2c1.5,1.3,3.9,0,5.3-1
		c0.7-0.5,1.1-1.2,1.3-1.9l0.3-1.5L503.1,273.6z"/>
	<path class="st23" d="M511.6,223.2c0,0,0.7,4-3.3,23.5c3.2,10.2-1.9,27.2-1.9,27.2h-3.8l-2.5-50.7L511.6,223.2z"/>
	<path class="st0" d="M504.8,196.7l-1.3,32.2L499,227c1.3-4.7,1.9-9.6,1.8-14.5c0.7-6.1-2.8-2.9,1.5-14.6
		C503,197.3,503.8,196.8,504.8,196.7z"/>
	<path class="st20" d="M504.2,193.3l0.5,2.7c0.2,0.9,1.1,1.6,2,1.4c0.2,0,0.4-0.1,0.6-0.2l1.8-1.1l-3.2-7.3L504.2,193.3z"/>
	<path class="st16" d="M515.2,223.2c0,0,4.9,4,0.9,23.5c3.2,10.2,0.4,27.2,0.4,27.2h-3.4l-9.5-50.7L515.2,223.2z"/>
	<path class="st0" d="M508.4,193.9c0,0,4.1,2.3,5.4,4.4c1.3,2.1,1.7,6.5,1.8,10.5c0.2,5.5,2.8,20,2.8,20h-11.1l-0.3-31.6
		L508.4,193.9z"/>
	<path class="st14" d="M500.3,185.2c2.5-0.6,4.9,1.9,4.9,1.9l1.9,10.2l2.9-4.5c0,0,0.2-6.1-2.7-10.1c-2-2.4-5.9-1.7-7.8,0.6
		c-0.9,1.2-1.2,2.7-1.1,4.2c0.1,2,0.7,13.3,0.7,13.3l5.8-4.3c-0.2-1.1-0.4-2.2-0.7-3.2C503.3,189.7,498.6,185.6,500.3,185.2z"/>
	<path class="st17" d="M505.9,187c-0.4-0.1-0.9,0.1-1.1,0.6c-0.2,0.4-0.1,0.8,0.2,1.1c0,0,0,0,0,0c0.4,0.1,0.9-0.1,1.1-0.6
		C506.5,187.7,506.4,187.2,505.9,187C506,187,506,187,505.9,187z"/>
	<path class="st17" d="M503.2,193.8c-0.4,0.2-0.8,0.2-1.3,0.2c-2.2-1.6-3-7.9-3-7.9l1.7-1.8l3.5,0.8l1.7,3.8c0.5,1,0.4,2.2-0.1,3.1
		l0,0C505.1,192.7,504.3,193.4,503.2,193.8z"/>
	<path class="st14" d="M499.7,185c0.2,1.9,5.5,2.1,5.5,2.1l0.3-2.6l-3.1-1.7l-2.5,1.5C499.7,184.5,499.7,184.8,499.7,185z"/>
	<path class="st14" d="M499.8,185.4c0,0.7-0.2,1.4-0.5,2l-0.4-0.8v-0.7l0.4-0.5C499.2,185.4,499.6,184.7,499.8,185.4z"/>
	<path class="st17" d="M512.7,198.3c5.4,0.6,2.8,14.5,1.7,20.2c-0.3,1.3-1.5,2.2-2.8,1.9c-0.1,0-0.2,0-0.2-0.1
		c-4.7-1.5-11.5-7.6-11.5-7.6l1.1-1.4l9.1,2.1C510,213.5,506.5,197.6,512.7,198.3z"/>
	<path class="st13" d="M502,208.1l1.8,10.9c0,0.3-0.1,0.5-0.4,0.6c0,0-0.1,0-0.1,0h-7c-0.3,0-0.5-0.2-0.5-0.4l-1.7-10.9
		c0-0.3,0.1-0.5,0.4-0.6c0,0,0.1,0,0.1,0h6.9C501.7,207.7,501.9,207.9,502,208.1z"/>
	<path class="st17" d="M494.3,213c0-0.5,0-0.9,0.1-1.4c0.2-1,0.1-2.6,1.2-1.8c0.6,0.7,1,1.6,1.1,2.5c0.1,0.8-0.1,1.7-0.7,2.3
		l-0.7,1.6C494.5,215.2,494.2,214.1,494.3,213z"/>
	
		<linearGradient id="SVGID_1_" gradientUnits="userSpaceOnUse" x1="155.3211" y1="70.0608" x2="156.3767" y2="70.0608" gradientTransform="matrix(-1 0 0 -1 654.13 282)">
		<stop  offset="0" style="stop-color:#BFE3EE"/>
		<stop  offset="1" style="stop-color:#DFEFEA"/>
	</linearGradient>
	<circle class="st24" cx="498.3" cy="211.9" r="0.5"/>
	<path class="st14" d="M202.5,276c0,0,0.7,1,4,1.8c0.7,0.2,1.5,0.3,1.5,1.5h-3.2l-3.3-0.6v0.6h-1.8c0,0-0.5-2.9,0.5-3.3H202.5z"/>
	<path class="st17" d="M202.7,273.9l-0.2,2.1l0,0c-0.6,0.4-1.5,0.5-2.2,0.1l-0.1-0.1v-2.1H202.7z"/>
	<path class="st14" d="M186,276.4c0,0,0.7,1,4,1.8c0.7,0.2,1.5,0.3,1.5,1.5h-3.2l-3.3-0.6v0.6h-1.8c0,0-0.5-2.9,0.5-3.3H186z"/>
	<path class="st17" d="M186.2,274.3l-0.2,2.1l0,0c-0.6,0.4-1.5,0.5-2.2,0.1l-0.1-0.1v-2.1H186.2z"/>
	<path class="st18" d="M204,222.5l-0.8,52.5h-3.8c0,0-5.8-42.4-4.6-52.5S204,222.5,204,222.5z"/>
	<path class="st10" d="M200,222.5c0,0-1.3,16.1-4.4,25S187,275,187,275h-4c0,0,6.7-38.6,5.1-52.5H200L200,222.5z"/>
	<path class="st16" d="M203.4,195.8c0,0,4.7,11,5.9,11c1,0-0.4-9-0.4-9h3.9c0,0,5,15.4,1,18.2c-3.9,2.8-12.6-8-12.6-8L203.4,195.8z"
		/>
	<path class="st17" d="M189.4,223.9l1.4,3.5c0.7,1.4,3.2,1.4,4.9,1c0.2-0.1,0.3-0.2,0.2-0.4c0-0.1,0-0.1-0.1-0.1
		c-1.3-1.5-2.7-2.9-4.1-4.2L189.4,223.9z"/>
	<path class="st16" d="M201.3,193.6c0,0,2.5,1.7,2.5,3.6v25.3h-14.5v-23.7c0,0,0.3-5.3,5.5-5.3S201.3,193.6,201.3,193.6z"/>
	<polygon class="st23" points="203.5,222.6 203.5,199.8 204,199.8 204,222.6 	"/>
	<path class="st20" d="M196.1,187.9v6c0.7,0.8,1.7,1.4,2.8,1.4c1.8,0,1.8-1.3,1.8-1.3v-3.8l-2.7-0.7L196.1,187.9z"/>
	<path class="st17" d="M200.9,191.3c0.5,0,0.9-0.1,1.3-0.4c1.6-2.5-0.2-9.4-0.2-9.4l-5.8,1l-0.2,4.6c0,1.2,0.5,2.4,1.4,3.2l0,0
		C198.5,190.9,199.7,191.3,200.9,191.3z"/>
	<path class="st14" d="M198.9,182.7c1.3,0.2,2.6,0.2,3.9,0c2-0.4,0.7-2.6,0.7-2.6c-1.3,0.5-2.8,0.6-4.2,0.3c-1.8-0.3-2.3-0.6-3.4,0
		c-1.6,0.8-1.2,3.7-1.2,3.7l0.9,6h0.3c0,0,0.1-3.6,0.1-4.8c0.3-0.6,0.7-0.6,1-0.4c0.3,0.2,0.5,0.5,0.5,0.8v6.2c0,0,4,1.7,5,1.4
		s0.3-4.9,0.3-4.9c-0.7-0.3-1.5-0.1-2.1,0.5c-0.9,1-2,0-2,0L198.9,182.7z"/>
	<path class="st17" d="M212.1,197.9l-0.1-0.8c-0.4-1.9-1.7-3.5-3.5-4.3h-1.7l0.5,3.6l2.4,1.5L212.1,197.9z"/>
	<path class="st17" d="M196.6,184.7c0.5,0,0.9,0.4,1,1c0.1,0.5-0.1,0.9-0.6,1.1c0,0,0,0-0.1,0c-0.5,0-0.9-0.4-1-1
		C195.8,185.3,196.1,184.8,196.6,184.7C196.5,184.7,196.6,184.7,196.6,184.7z"/>
	<path class="st17" d="M208,196l3.3,1.9c0,0-2,0-2.1,0l-3.5-2.9c0,0,0.3-0.5,1-0.1C207.2,195.2,207.7,195.5,208,196z"/>
	<path class="st16" d="M190.9,195.1c0,0-8.2,9-8.2,14.5s6.6,15,6.6,15l3.3-1c0,0-2.9-11.8-2.9-15s6.1-7.8,6.1-7.8"/>
	<path class="st23" d="M189.9,208.6c0,2.7,2.4,12.6,3,14.9l-0.5,0.1c-0.7-2.9-3-12.4-3-15.1c0-3.2,5.9-7.8,6.2-8l0.3,0.4
		C195.9,201,189.9,205.6,189.9,208.6z"/>
	<path class="st25" d="M205.8,190c-0.3,2.2,0.2,4.5,1.5,6.3c0.2,0.2,0.4,0.3,0.6,0.3c0.4,0,0.8,0,1.1-0.2c0.3-0.1,0.5-0.2,0.7-0.5
		c0.1-0.1,0.1-0.3,0-0.5c-0.4-0.7-1.8-2.9-1.2-4.9C207.8,190.1,206.8,189.8,205.8,190z"/>
	<path class="st26" d="M209.4,196.4c0.2-0.1,0.3-0.2,0.4-0.4c0.1-0.1,0.1-0.3,0-0.5c-0.4-0.7-1.8-2.9-1.2-4.9
		c-0.4-0.3-0.8-0.5-1.3-0.6C207.2,192.3,207.6,193.7,209.4,196.4z"/>
	
		<ellipse transform="matrix(0.9796 -0.2011 0.2011 0.9796 -34.5316 45.7847)" class="st25" cx="208.1" cy="192.9" rx="0.4" ry="0.9"/>
	<polygon class="st25" points="207.9,192 208.1,191.9 208.1,192 207.9,192.1 	"/>
	<polygon class="st27" points="208.3,193.8 208.5,193.7 208.2,193.7 	"/>
	
		<ellipse transform="matrix(0.9795 -0.2012 0.2012 0.9795 -34.5418 45.8647)" class="st0" cx="208.3" cy="192.8" rx="0.4" ry="0.9"/>
	<path class="st0" d="M204.9,187.1h-0.4c-0.7,0-1.3,0.5-1.3,1.2c0,0,0,0.1,0,0.1v1c0,0.7,0.6,1.3,1.3,1.3c0,0,0.1,0,0.1,0h0.4V187.1
		z"/>
	<ellipse class="st14" cx="215.3" cy="188.1" rx="1.4" ry="5"/>
	<polygon class="st9" points="213.8,186.2 215,187 215,188.6 213.8,189.6 213.4,187.5 	"/>
	<path class="st12" d="M213.9,188.1c0-2.3,0.5-4.3,1.1-4.9l0,0c-3.1,2.1-6.6,3.4-10.2,3.9v3.5c0,0,7.5-0.4,10.2,2.3l0,0
		C214.4,192.4,213.9,190.4,213.9,188.1z"/>
	<ellipse class="st0" cx="215" cy="187.8" rx="0.2" ry="0.8"/>
	<path class="st17" d="M210.3,195.3c-0.6,0.2-1.2,0.4-1.8,0.3c-0.9,0-1.4-1.2-1.5-1.8c0-0.2-0.1-0.5,0.2-0.7l1.5-0.2L210.3,195.3z"
		/>
	<path class="st17" d="M628.5,192.4c0.3,0.7,0.4,1.5,0.1,2.2l-0.4,2.9l-0.5,0.3l-1.9,0.8c0.1-0.4,0.1-0.8,0-1.2l-0.8-3
		c0,0-1.3-5.1,2.2-4.9c0-4.1,1.1-3.5,1.1-3.5l0.1,3.6L628.5,192.4z"/>
	<path class="st19" d="M637.1,202.5c0,0-2.4,9.2-4.5,9.4s-4.2-14.6-4.2-14.6l-2.8,0.3c0,0-1.1,21.2,5.2,21.6
		c6.3,0.4,7.1-4.3,7.1-4.3L637.1,202.5z"/>
	<path class="st12" d="M637.3,227.7h16.4v-25c-4.7-7.2-10.6-5.2-10.6-5.2s-5.3,0.1-6.2,5C637.1,206.1,637.3,227.7,637.3,227.7z"/>
	<path class="st20" d="M645.2,194.2l0.2,3.5l-0.1,0.1c-1.2,1.1-3,1.1-4.2,0l0,0v-2.7L645.2,194.2z"/>
	<path class="st17" d="M646.4,186.9l-0.3,5.8c-0.5,0-0.9,0.5-0.8,1c0,0.1,0,0.1,0,0.2c-0.1,0.1-0.1,0.3-0.1,0.4
		c-1.5,1.1-3.4,1.6-5.2,1.3c-3.7-0.7-1.5-7.9-1.5-7.9L646.4,186.9z"/>
	<path class="st14" d="M648.3,191.2c0.2-0.6,0.5-1.2,0.9-1.6c2.1-1.8,0.2-3.1-0.4-3.6s-0.6-1.8-1.5-2.5c-1.4-1.1-2.9,0-3.8-0.1
		c-0.9-0.1-1.5-1.4-2.9-0.8c-1.3,0.7-1.3,1.7-1.6,2.2s-1.3-0.8-2.5,0.6c-2,2.1,1.9,3.1,1.9,3.1c1.6,0.5,3.4,0.5,5-0.2
		c0.4-0.2,0.8-0.1,1.1,0.3c0.7,0.9,0.7,5.8,0.7,5.8l1-0.8C647.3,193.4,648.2,192.4,648.3,191.2z"/>
	
		<ellipse transform="matrix(0.3788 -0.9255 0.9255 0.3788 223.7041 715.9857)" class="st17" cx="645.2" cy="191.4" rx="0.9" ry="0.9"/>
	<path class="st14" d="M641.1,274.9c0,0-0.9,1.3-5.3,2.4c-1,0.3-2,0.4-2,2h4.3l4.4-0.8v0.8h2.4c0,0,0.7-3.9-0.7-4.4H641.1z"/>
	<path class="st17" d="M640.8,272.1l0.2,2.8l0,0c0.9,0.6,2,0.6,2.9,0.1l0.2-0.1v-2.8H640.8z"/>
	<path class="st14" d="M653.3,274.9c0,0-0.9,1.3-5.3,2.4c-1,0.3-2,0.4-2,2h4.3l4.4-0.8v0.8h2.4c0,0,0.7-3.9-0.7-4.4H653.3z"/>
	<path class="st17" d="M653.1,272.1l0.2,2.8l0,0c0.9,0.6,2,0.6,2.9,0.1l0.2-0.1v-2.8H653.1z"/>
	<path class="st12" d="M653.8,202.8c0,0,4.9,11.4-1.4,17.2s-14.8,4.8-14.8,4.8v-3.3c0,0,7.7-0.7,10.2-5.8c1.4-3.2,1-6.8-1-9.6"/>
	<path class="st17" d="M638.1,224.3l-3.9,0.1c-1.6-0.1-2.7-2.5-2.9-4.2c0-0.2,0.1-0.4,0.3-0.4c0.1,0,0.1,0,0.2,0
		c1.9,0.6,3.8,1.4,5.7,2.2L638.1,224.3z"/>
	<path class="st23" d="M637.3,227.7c-4.9,13.8,2.8,44.5,2.8,44.5h4.4c0,0-2.1-43.5,3.6-44.5H637.3z"/>
	<path class="st19" d="M648.6,212.3c-0.1,1.2-0.4,2.4-0.9,3.4c-2.5,5.2-10.6,5.8-10.6,5.8v3.3c0,0,8.9,0.9,15.2-4.9
		c2.1-2,3.2-4.8,3.2-7.7H648.6z"/>
	<path class="st19" d="M648.6,212.8l0.5-0.2c0.1-2.4-0.6-4.8-2-6.7l-0.4,0.3C648.2,208,648.8,210.4,648.6,212.8z"/>
	<path class="st17" d="M627.7,192.9c0,0,0.9-0.3,1.1-1.9c0.2-1.6,0.9-1.1,0.9-1.1s-0.4,6.5-1.4,6.8S627.7,192.9,627.7,192.9z"/>
	<path class="st16" d="M642.2,227.7c-1.3,17,9.5,44.5,9.5,44.5h5.2c-2.1-11.3-3.4-22.7-3.6-34.1c0-3.5,0.1-6.9,0.5-10.4L642.2,227.7
		z"/>
</g>
</svg>
